AcariSans-Italic.ufo
<glyph name="quotedbl" format="2">
  <advance width="771"/>
  <unicode hex="0022"/>
  <outline>
    <contour>
      <point x="251.05" y="972.525" type="line"/>
      <point x="409.3" y="972.525" type="line"/>
      <point x="518.75" y="1448" type="line"/>
      <point x="360.925" y="1448" type="line"/>
    </contour>
    <contour>
      <point x="576.575" y="972.525" type="line"/>
      <point x="734.825" y="972.525" type="line"/>
      <point x="844.275" y="1448" type="line"/>
      <point x="686.45" y="1448" type="line"/>
    </contour>
  </outline>
</glyph>
<glyph name="dollar" format="2">
  <advance width="1229"/>
  <unicode hex="0024"/>
  <outline>
    <contour>
      <point x="482.277" y="-252.493" type="line"/>
      <point x="542.693" y="-16.666" type="line"/>
      <point x="847.026" y="-2.304"/>
      <point x="1056.59" y="175.155"/>
      <point x="1056.59" y="457.318" type="curve" smooth="yes"/>
      <point x="1056.59" y="851.558"/>
      <point x="505.266" y="778.419"/>
      <point x="505.266" y="1062.17" type="curve" smooth="yes"/>
      <point x="505.266" y="1201.51"/>
      <point x="634.06" y="1300.84"/>
      <point x="789.759" y="1300.84" type="curve" smooth="yes"/>
      <point x="895.845" y="1300.84"/>
      <point x="980.377" y="1241.78"/>
      <point x="1008.18" y="1149.72" type="curve"/>
      <point x="1172.94" y="1228.57" type="line"/>
      <point x="1129.37" y="1358.28"/>
      <point x="1015.63" y="1447.99"/>
      <point x="871.986" y="1464.91" type="curve"/>
      <point x="932.837" y="1698.82" type="line"/>
      <point x="795.314" y="1698.82" type="line"/>
      <point x="734.309" y="1464.32" type="line"/>
      <point x="485.785" y="1436.67"/>
      <point x="313.753" y="1265.46"/>
      <point x="313.753" y="1040.28" type="curve" smooth="yes"/>
      <point x="313.753" y="649.062"/>
      <point x="868.146" y="725.888"/>
      <point x="868.146" y="435.712" type="curve" smooth="yes"/>
      <point x="868.146" y="252.902"/>
      <point x="726.501" y="158.95"/>
      <point x="514.303" y="158.95" type="curve" smooth="yes"/>
      <point x="345.701" y="158.95"/>
      <point x="248.78" y="239.053"/>
      <point x="248.78" y="378.854" type="curve" smooth="yes"/>
      <point x="248.78" y="391.168"/>
      <point x="249.804" y="404.634"/>
      <point x="251.417" y="418.253" type="curve"/>
      <point x="61.951" y="388.582" type="line"/>
      <point x="61.951" y="368.179" type="line" smooth="yes"/>
      <point x="61.951" y="158.182"/>
      <point x="203.775" y="21.171"/>
      <point x="405.452" y="-11.418" type="curve"/>
      <point x="344.165" y="-252.493" type="line"/>
    </contour>
  </outline>
</glyph>
<glyph name="parenleft" format="2">
  <advance width="583"/>
  <unicode hex="0028"/>
  <outline>
    <contour>
      <point x="388.222" y="-56.806" type="line"/>
      <point x="309.989" y="85.799"/>
      <point x="276.683" y="235.571"/>
      <point x="276.683" y="391.373" type="curve" smooth="yes"/>
      <point x="276.683" y="790.17"/>
      <point x="478.078" y="1239.1"/>
      <point x="759.448" y="1515.85" type="curve"/>
      <point x="594.994" y="1515.85" type="line"/>
      <point x="307.147" y="1243.7"/>
      <point x="140.798" y="797.414"/>
      <point x="140.798" y="406.374" type="curve" smooth="yes"/>
      <point x="140.798" y="264.192"/>
      <point x="163.787" y="64.475"/>
      <point x="244.811" y="-56.806" type="curve"/>
    </contour>
  </outline>
</glyph>
<glyph name="parenright" format="2">
  <advance width="584"/>
  <unicode hex="0029"/>
  <outline>
    <contour>
      <point x="81.176" y="-56.806" type="line"/>
      <point x="373.118" y="193.818"/>
      <point x="545.304" y="685.082"/>
      <point x="545.304" y="1056.77" type="curve" smooth="yes"/>
      <point x="545.304" y="1224.76"/>
      <point x="514.61" y="1392.87"/>
      <point x="436.888" y="1515.85" type="curve"/>
      <point x="290.866" y="1515.85" type="line"/>
      <point x="365.285" y="1374.08"/>
      <point x="399.922" y="1203.66"/>
      <point x="399.922" y="1040" type="curve" smooth="yes"/>
      <point x="399.922" y="640.23"/>
      <point x="200.83" y="222.08"/>
      <point x="-76.853" y="-56.806" type="curve"/>
    </contour>
  </outline>
</glyph>
<glyph name="hyphen" format="2">
  <advance width="885"/>
  <unicode hex="002D"/>
  <outline>
    <contour>
      <point x="728.984" y="573.03" type="line"/>
      <point x="762.11" y="710.656" type="line"/>
      <point x="215.32" y="710.656" type="line"/>
      <point x="182.629" y="573.03" type="line"/>
    </contour>
  </outline>
</glyph>
<glyph name="period" format="2">
  <advance width="614"/>
  <unicode hex="002E"/>
  <outline>
    <contour>
      <point x="311.373" y="0" type="line"/>
      <point x="361.19" y="219.11" type="line"/>
      <point x="144.614" y="219.11" type="line"/>
      <point x="94.208" y="0" type="line"/>
    </contour>
  </outline>
</glyph>
<glyph name="slash" format="2">
  <advance width="961"/>
  <unicode hex="002F"/>
  <outline>
    <contour>
      <point x="-37.95" y="-440.575" type="line"/>
      <point x="1202.35" y="1552" type="line"/>
      <point x="1020.28" y="1552" type="line"/>
      <point x="-221.05" y="-440.575" type="line"/>
    </contour>
  </outline>
</glyph>
<glyph name="less" format="2">
  <advance width="1255"/>
  <unicode hex="003C"/>
  <outline>
    <contour>
      <point x="1038.41" y="168.602" type="line"/>
      <point x="1118.57" y="306.125" type="line"/>
      <point x="390.091" y="690.176" type="line"/>
      <point x="1118.57" y="1073.05" type="line"/>
      <point x="1038.41" y="1211.16" type="line"/>
      <point x="92.184" y="690.176" type="line"/>
    </contour>
  </outline>
</glyph>
<glyph name="C" format="2">
  <advance width="1461"/>
  <unicode hex="0043"/>
  <anchor x="1001.35" y="1620" name="top"/>
  <anchor x="656.05" y="0" name="cedilla"/>
  <outline>
    <contour>
      <point x="657.33" y="-20.48" type="curve" smooth="yes"/>
      <point x="946.149" y="-20.48"/>
      <point x="1181.16" y="132.659"/>
      <point x="1338.96" y="367.795" type="curve"/>
      <point x="1179.72" y="455.808" type="line"/>
      <point x="1063.7" y="265.011"/>
      <point x="898.891" y="162.714"/>
      <point x="679.96" y="162.714" type="curve" smooth="yes"/>
      <point x="443.698" y="162.714"/>
      <point x="317.157" y="282.342"/>
      <point x="317.157" y="520.627" type="curve" smooth="yes"/>
      <point x="317.157" y="882.125"/>
      <point x="545.688" y="1298.48"/>
      <point x="948.632" y="1298.48" type="curve" smooth="yes"/>
      <point x="1138.12" y="1298.48"/>
      <point x="1291.6" y="1216.41"/>
      <point x="1308.01" y="1010.51" type="curve"/>
      <point x="1492.45" y="1070.39" type="line"/>
      <point x="1445.94" y="1341.21"/>
      <point x="1236.53" y="1470.46"/>
      <point x="973.31" y="1470.46" type="curve" smooth="yes"/>
      <point x="455.755" y="1470.46"/>
      <point x="126.514" y="988.365"/>
      <point x="126.514" y="506.624" type="curve" smooth="yes"/>
      <point x="126.514" y="167.808"/>
      <point x="325.016" y="-20.48"/>
    </contour>
  </outline>
  <guideline angle="90" name="vertical" x="992" y="0"/>
</glyph>
<glyph name="L" format="2">
  <advance width="1072"/>
  <unicode hex="004C"/>
  <anchor x="521" y="1620" name="top"/>
  <anchor x="516.6" y="-120" name="bottom"/>
  <anchor x="863.725" y="774" name="center"/>
  <outline>
    <contour>
      <point x="902.064" y="0" type="line"/>
      <point x="941.898" y="176.87" type="line"/>
      <point x="322.813" y="176.87" type="line"/>
      <point x="615.779" y="1447.94" type="line"/>
      <point x="425.162" y="1447.94" type="line"/>
      <point x="91.773" y="0" type="line"/>
    </contour>
  </outline>
  <guideline angle="90" name="vertical" x="504" y="0"/>
</glyph>
<glyph name="N" format="2">
  <advance width="1461"/>
  <unicode hex="004E"/>
  <anchor x="951.45" y="1620" name="top"/>
  <anchor x="641.175" y="-120" name="bottom"/>
  <outline>
    <contour>
      <point x="1122.89" y="0" type="line"/>
      <point x="1456.12" y="1446.91" type="line"/>
      <point x="1269.86" y="1446.91" type="line"/>
      <point x="995.63" y="267.546" type="line"/>
      <point x="639.534" y="1446.91" type="line"/>
      <point x="408.264" y="1446.91" type="line"/>
      <point x="74.8749" y="0" type="line"/>
      <point x="261.883" y="0" type="line"/>
      <point x="536.546" y="1181.41" type="line"/>
      <point x="888.392" y="0" type="line"/>
    </contour>
  </outline>
  <guideline angle="90" name="vertical" x="937" y="0"/>
</glyph>
<glyph name="S" format="2">
  <advance width="1148"/>
  <unicode hex="0053"/>
  <anchor x="739.15" y="1620" name="top"/>
  <anchor x="508" y="0" name="cedilla"/>
  <anchor x="465.925" y="-120" name="bottom"/>
  <outline>
    <contour>
      <point x="508.976" y="-16.384" type="curve" smooth="yes"/>
      <point x="775.472" y="-16.384"/>
      <point x="1039.1" y="154.573"/>
      <point x="1039.1" y="442.957" type="curve" smooth="yes"/>
      <point x="1039.1" y="848.922"/>
      <point x="490.16" y="801.178"/>
      <point x="490.16" y="1070.59" type="curve" smooth="yes"/>
      <point x="490.16" y="1216.95"/>
      <point x="629.91" y="1303.6"/>
      <point x="763.978" y="1303.6" type="curve" smooth="yes"/>
      <point x="868.016" y="1303.6"/>
      <point x="961.61" y="1250.2"/>
      <point x="995.862" y="1148.52" type="curve"/>
      <point x="1156.53" y="1227.19" type="line"/>
      <point x="1096.16" y="1392.95"/>
      <point x="935.318" y="1468.42"/>
      <point x="767.203" y="1468.42" type="curve" smooth="yes"/>
      <point x="526.563" y="1468.42"/>
      <point x="296.931" y="1308.95"/>
      <point x="296.931" y="1051.98" type="curve" smooth="yes"/>
      <point x="296.931" y="667.085"/>
      <point x="845.872" y="725.35"/>
      <point x="845.872" y="423.296" type="curve" smooth="yes"/>
      <point x="845.872" y="242.15"/>
      <point x="685.488" y="160.077"/>
      <point x="523.952" y="160.077" type="curve" smooth="yes"/>
      <point x="354.019" y="160.077"/>
      <point x="236.848" y="250.291"/>
      <point x="236.848" y="423.834" type="curve"/>
      <point x="45.974" y="389.222" type="line"/>
      <point x="45.974" y="121.958"/>
      <point x="261.142" y="-16.384"/>
    </contour>
  </outline>
  <guideline angle="90" name="vertical" x="740" y="0"/>
</glyph>
<glyph name="V" format="2">
  <advance width="1330"/>
  <unicode hex="0056"/>
  <outline>
    <contour>
      <point x="625.859" y="0" type="line"/>
      <point x="1512.05" y="1447.91" type="line"/>
      <point x="1305.13" y="1447.91" type="line"/>
      <point x="607.939" y="278.221" type="line"/>
      <point x="452.701" y="1447.91" type="line"/>
      <point x="248.541" y="1447.91" type="line"/>
      <point x="470.16" y="0" type="line"/>
    </contour>
  </outline>
</glyph>
<glyph name="X" format="2">
  <advance width="1245"/>
  <unicode hex="0058"/>
  <outline>
    <contour>
      <point x="1097.31" y="0" type="line"/>
      <point x="787.059" y="723.968" type="line"/>
      <point x="1433.46" y="1446.91" type="line"/>
      <point x="1205.06" y="1446.91" type="line"/>
      <point x="695.667" y="858.214" type="line"/>
      <point x="464.012" y="1446.91" type="line"/>
      <point x="240.857" y="1446.91" type="line"/>
      <point x="549.644" y="723.968" type="line"/>
      <point x="-99.3929" y="0" type="line"/>
      <point x="132.236" y="0" type="line"/>
      <point x="638.399" y="578.739" type="line"/>
      <point x="877.375" y="0" type="line"/>
    </contour>
  </outline>
</glyph>
<glyph name="Z" format="2">
  <advance width="1315"/>
  <unicode hex="005A"/>
  <anchor x="861.85" y="1620" name="top"/>
  <outline>
    <contour>
      <point x="1098.63" y="0" type="line"/>
      <point x="1139.79" y="169.622" type="line"/>
      <point x="264.989" y="169.622" type="line"/>
      <point x="1399.89" y="1298.36" type="line"/>
      <point x="1432.45" y="1447.91" type="line"/>
      <point x="348.701" y="1447.91" type="line"/>
      <point x="309.738" y="1278.8" type="line"/>
      <point x="1140.07" y="1278.8" type="line"/>
      <point x="-1.123" y="138.902" type="line"/>
      <point x="-30.179" y="0" type="line"/>
    </contour>
  </outline>
  <guideline angle="90" name="vertical" x="878" y="0"/>
</glyph>
<glyph name="g" format="2">
  <advance width="1176"/>
  <unicode hex="0067"/>
  <anchor x="662.4" y="1192" name="top"/>
  <outline>
    <contour>
      <point x="349.198" y="-445.568" type="curve" smooth="yes"/>
      <point x="656.731" y="-445.568"/>
      <point x="837.339" y="-270.182"/>
      <point x="905.204" y="19.712" type="curve" smooth="yes"/>
      <point x="1150.07" y="1063.94" type="line"/>
      <point x="959.169" y="1063.94" type="line"/>
      <point x="923.739" y="925.082" type="line"/>
      <point x="866.83" y="1036.39"/>
      <point x="760.487" y="1085.44"/>
      <point x="634.023" y="1085.44" type="curve" smooth="yes"/>
      <point x="279.105" y="1085.44"/>
      <point x="67.214" y="689.28"/>
      <point x="67.214" y="373.325" type="curve" smooth="yes"/>
      <point x="67.214" y="155.699"/>
      <point x="174.375" y="-11.776"/>
      <point x="408.692" y="-11.776" type="curve" smooth="yes"/>
      <point x="544.5" y="-11.776"/>
      <point x="661.313" y="43.622"/>
      <point x="749.863" y="135.731" type="curve"/>
      <point x="716.916" y="7.88501" type="line" smooth="yes"/>
      <point x="670.811" y="-170.675"/>
      <point x="542.273" y="-288.691"/>
      <point x="361.844" y="-288.691" type="curve" smooth="yes"/>
      <point x="239.63" y="-288.691"/>
      <point x="150.465" y="-239.283"/>
      <point x="116.315" y="-144.512" type="curve"/>
      <point x="-42.047" y="-231.936" type="line"/>
      <point x="28.814" y="-391.168"/>
      <point x="185.614" y="-445.568"/>
    </contour>
    <contour>
      <point x="463.348" y="150.912" type="curve" smooth="yes"/>
      <point x="316.916" y="150.912"/>
      <point x="250.228" y="246.17"/>
      <point x="250.228" y="384.947" type="curve" smooth="yes"/>
      <point x="250.228" y="616.115"/>
      <point x="401.703" y="923.315"/>
      <point x="664.692" y="923.315" type="curve" smooth="yes"/>
      <point x="811.252" y="923.315"/>
      <point x="875.175" y="826.752"/>
      <point x="875.175" y="689.306" type="curve" smooth="yes"/>
      <point x="875.175" y="459.904"/>
      <point x="724.571" y="150.912"/>
    </contour>
  </outline>
  <guideline angle="90" name="vertical" x="642" y="0"/>
</glyph>
<glyph name="k" format="2">
  <advance width="1126"/>
  <unicode hex="006B"/>
  <anchor x="475.15" y="-120" name="bottom"/>
  <outline>
    <contour>
      <point x="1174.74" y="1063.94" type="line"/>
      <point x="932.232" y="1063.94" type="line"/>
      <point x="334.805" y="523.955" type="line"/>
      <point x="285.167" y="290.662" type="line"/>
    </contour>
    <contour>
      <point x="984.968" y="0" type="line"/>
      <point x="706.287" y="692.89" type="line"/>
      <point x="557.73" y="566.835" type="line"/>
      <point x="765.756" y="0" type="line"/>
    </contour>
    <contour>
      <point x="41.25" y="0" type="line"/>
      <point x="229.35" y="0" type="line"/>
      <point x="575.925" y="1448" type="line"/>
      <point x="387.825" y="1448" type="line"/>
    </contour>
  </outline>
</glyph>
<glyph name="p" format="2">
  <advance width="1181"/>
  <unicode hex="0070"/>
  <outline>
    <contour>
      <point x="122.007" y="-449.101" type="line"/>
      <point x="266.57" y="139.878" type="line"/>
      <point x="324.349" y="24.038"/>
      <point x="434.634" y="-20.48"/>
      <point x="559.818" y="-20.48" type="curve" smooth="yes"/>
      <point x="913.379" y="-20.48"/>
      <point x="1125.42" y="381.952"/>
      <point x="1125.42" y="696.115" type="curve" smooth="yes"/>
      <point x="1125.42" y="913.997"/>
      <point x="1018.26" y="1084.42"/>
      <point x="786.301" y="1084.42" type="curve" smooth="yes"/>
      <point x="647.395" y="1084.42"/>
      <point x="533.962" y="1034.16"/>
      <point x="442.186" y="938.522" type="curve"/>
      <point x="472.675" y="1063.94" type="line"/>
      <point x="285.872" y="1063.94" type="line"/>
      <point x="-67.997" y="-449.101" type="line"/>
    </contour>
    <contour>
      <point x="524.874" y="141.619" type="curve" smooth="yes"/>
      <point x="376.829" y="141.619"/>
      <point x="315.415" y="241.126"/>
      <point x="315.415" y="378.291" type="curve" smooth="yes"/>
      <point x="315.415" y="607.386"/>
      <point x="465.149" y="924.186"/>
      <point x="727.805" y="924.186" type="curve" smooth="yes"/>
      <point x="878.179" y="924.186"/>
      <point x="944.176" y="825.856"/>
      <point x="944.176" y="684.595" type="curve" smooth="yes"/>
      <point x="944.176" y="449.357"/>
      <point x="792.343" y="141.619"/>
    </contour>
  </outline>
</glyph>
<glyph name="s" format="2">
  <advance width="927"/>
  <unicode hex="0073"/>
  <outline>
    <contour>
      <point x="9.608" y="239.726" type="line"/>
      <point x="78.2681" y="83.6234"/>
      <point x="238.739" y="-20.445"/>
      <point x="410.785" y="-20.445" type="curve" smooth="yes" name=".dv01"/>
      <point x="624.942" y="-20.445"/>
      <point x="798.286" y="130.707"/>
      <point x="798.286" y="317.445" type="curve" smooth="yes" name=".sh01"/>
      <point x="798.286" y="428.616"/>
      <point x="738.074" y="501.178"/>
      <point x="577.541" y="583.464" type="curve" smooth="yes"/>
      <point x="414.695" y="666.936" type="line" smooth="yes"/>
      <point x="375.06" y="687.252"/>
      <point x="354.853" y="725.511"/>
      <point x="354.853" y="776.841" type="curve" smooth="yes"/>
      <point x="354.853" y="861.645"/>
      <point x="424.47" y="921.36"/>
      <point x="523.336" y="921.36" type="curve" smooth="yes"/>
      <point x="616.404" y="921.36" name=".sh04"/>
      <point x="701.605" y="866.586"/>
      <point x="736.338" y="784.425" type="curve"/>
      <point x="890.17" y="868.48" type="line"/>
      <point x="833.764" y="997.525"/>
      <point x="690.735" y="1083.56"/>
      <point x="532.598" y="1083.56" type="curve" smooth="yes"/>
      <point x="322.757" y="1083.56"/>
      <point x="156.97" y="935.667"/>
      <point x="156.97" y="748.481" type="curve" smooth="yes"/>
      <point x="156.97" y="638.78" name=".dv04"/>
      <point x="208.55" y="572.918"/>
      <point x="349.859" y="502.181" type="curve" smooth="yes"/>
      <point x="525.748" y="414.134" type="line" smooth="yes"/>
      <point x="570.022" y="391.971"/>
      <point x="598.341" y="343.642"/>
      <point x="598.341" y="290.246" type="curve" smooth="yes"/>
      <point x="598.341" y="204.804" name=".sh03"/>
      <point x="516.907" y="140.158"/>
      <point x="409.276" y="140.158" type="curve" smooth="yes"/>
      <point x="300.721" y="140.158"/>
      <point x="202.534" y="211.905"/>
      <point x="163.808" y="319.526" type="curve"/>
    </contour>
  </outline>
</glyph>
<glyph name="v" format="2">
  <advance width="1022"/>
  <unicode hex="0076"/>
  <outline>
    <contour>
      <point x="471.339" y="0" type="line"/>
      <point x="1125.52" y="1063.94" type="line"/>
      <point x="919.314" y="1063.94" type="line"/>
      <point x="441.387" y="242.842" type="line"/>
      <point x="349.048" y="1063.94" type="line"/>
      <point x="146.629" y="1063.94" type="line"/>
      <point x="309.573" y="0" type="line"/>
    </contour>
  </outline>
</glyph>
<glyph name="x" format="2">
  <advance width="1006"/>
  <unicode hex="0078"/>
  <outline>
    <contour>
      <point x="850.336" y="0" type="line"/>
      <point x="616.019" y="540.698" type="line"/>
      <point x="1094.28" y="1063.94" type="line"/>
      <point x="861.677" y="1063.94" type="line"/>
      <point x="529.722" y="681.933" type="line"/>
      <point x="378.963" y="1063.94" type="line"/>
      <point x="154.656" y="1063.94" type="line"/>
      <point x="386.925" y="543.642" type="line"/>
      <point x="-103.571" y="0" type="line"/>
      <point x="131.693" y="0" type="line"/>
      <point x="473.504" y="400.947" type="line"/>
      <point x="625.158" y="0" type="line"/>
    </contour>
  </outline>
</glyph>
<glyph name="exclamdown" format="2">
  <advance width="651"/>
  <unicode hex="00A1"/>
  <outline>
    <contour>
      <point x="502.835" y="803.866" type="line"/>
      <point x="552.064" y="1022.39" type="line"/>
      <point x="331.494" y="1022.39" type="line"/>
      <point x="281.677" y="803.866" type="line"/>
    </contour>
    <contour>
      <point x="201.267" y="-446.182" type="line"/>
      <point x="417.971" y="617.677" type="line"/>
      <point x="280.781" y="617.677" type="line"/>
      <point x="5.709" y="-446.182" type="line"/>
    </contour>
  </outline>
</glyph>
<glyph name="cent" format="2">
  <advance width="1229"/>
  <unicode hex="00A2"/>
  <outline>
    <contour>
      <point x="530.465" y="-210.509" type="line"/>
      <point x="578.593" y="-20.019" type="line"/>
      <point x="752.084" y="0.563004"/>
      <point x="883.719" y="95.181"/>
      <point x="975.111" y="251.776" type="curve"/>
      <point x="830.855" y="332.826" type="line"/>
      <point x="768.724" y="212.378"/>
      <point x="658.439" y="137.267"/>
      <point x="533.793" y="137.267" type="curve" smooth="yes"/>
      <point x="391.636" y="137.267"/>
      <point x="335.316" y="229.376"/>
      <point x="335.316" y="361.702" type="curve" smooth="yes"/>
      <point x="335.316" y="581.53"/>
      <point x="479.623" y="881.024"/>
      <point x="729.914" y="881.024" type="curve" smooth="yes"/>
      <point x="843.245" y="881.024"/>
      <point x="917.255" y="819.098"/>
      <point x="920.199" y="701.67" type="curve"/>
      <point x="1100.24" y="754.842" type="line"/>
      <point x="1066.63" y="914.893"/>
      <point x="960.365" y="1014.94"/>
      <point x="811.629" y="1036.57" type="curve"/>
      <point x="862.241" y="1228.21" type="line"/>
      <point x="728.711" y="1228.21" type="line"/>
      <point x="678.535" y="1038.31" type="line"/>
      <point x="357.281" y="991.002"/>
      <point x="157.447" y="667.264"/>
      <point x="157.447" y="359.962" type="curve" smooth="yes"/>
      <point x="157.447" y="167.014"/>
      <point x="244.641" y="13.107"/>
      <point x="448.135" y="-16.666" type="curve"/>
      <point x="395.322" y="-210.509" type="line"/>
    </contour>
  </outline>
</glyph>
<glyph name="logicalnot" format="2">
  <advance width="1326"/>
  <unicode hex="00AC"/>
  <outline>
    <contour>
      <point x="1076.02" y="297.984" type="line"/>
      <point x="1076.02" y="814.95" type="line"/>
      <point x="155.904" y="814.95" type="line"/>
      <point x="155.904" y="653.389" type="line"/>
      <point x="904.55" y="653.389" type="line"/>
      <point x="904.55" y="297.984" type="line"/>
    </contour>
  </outline>
</glyph>
<glyph name="softhyphen" format="2">
  <advance width="1010"/>
  <unicode hex="00AD"/>
  <outline>
    <contour>
      <point x="864.917" y="570.829" type="line"/>
      <point x="897.173" y="707.43" type="line"/>
      <point x="203.95" y="707.43" type="line"/>
      <point x="171.694" y="570.829" type="line"/>
    </contour>
  </outline>
  <guideline angle="256.921" x="216" y="707"/>
  <guideline angle="76.9209" x="848" y="608"/>
  <guideline angle="0" x="0" y="608"/>
  <guideline angle="0" x="0" y="707"/>
</glyph>
<glyph name="acute" format="2">
  <advance width="550"/>
  <unicode hex="00B4"/>
  <outline>
    <contour>
      <point x="353.632" y="1191.94" type="line"/>
      <point x="712.621" y="1495.99" type="line"/>
      <point x="492.333" y="1495.99" type="line"/>
      <point x="199.955" y="1191.94" type="line"/>
    </contour>
  </outline>
</glyph>
<glyph name="paragraph" format="2">
  <advance width="1383"/>
  <unicode hex="00B6"/>
  <outline>
    <contour>
      <point x="556.048" y="-252.493" type="line"/>
      <point x="948.24" y="1446.91" type="line"/>
      <point x="793.334" y="1446.91" type="line" smooth="yes"/>
      <point x="519.619" y="1446.91"/>
      <point x="234.666" y="1257.14"/>
      <point x="234.666" y="961.203" type="curve" smooth="yes"/>
      <point x="234.666" y="746.035"/>
      <point x="426.179" y="638.541"/>
      <point x="619.843" y="638.541" type="curve"/>
      <point x="407.875" y="-252.493" type="line"/>
    </contour>
    <contour>
      <point x="928.272" y="-252.493" type="line"/>
      <point x="1320.46" y="1446.91" type="line"/>
      <point x="1172.01" y="1446.91" type="line"/>
      <point x="779.229" y="-252.493" type="line"/>
    </contour>
  </outline>
</glyph>
<glyph name="oslash" format="2">
  <advance width="1181"/>
  <unicode hex="00F8"/>
  <anchor x="743" y="1192" name="top"/>
  <outline>
    <contour>
      <point x="474.547" y="-20.48" type="curve" smooth="yes"/>
      <point x="827.059" y="-20.48"/>
      <point x="1112.65" y="315.392"/>
      <point x="1112.65" y="658.483" type="curve" smooth="yes"/>
      <point x="1112.65" y="778.24"/>
      <point x="1076.25" y="887.091"/>
      <point x="997.555" y="971.802" type="curve"/>
      <point x="1071.97" y="1063.35" type="line"/>
      <point x="966.246" y="1063.35" type="line"/>
      <point x="931.405" y="1021.03" type="line"/>
      <point x="864.102" y="1060.28"/>
      <point x="788.326" y="1077.25"/>
      <point x="704.819" y="1077.25" type="curve" smooth="yes"/>
      <point x="352.154" y="1077.25"/>
      <point x="67.738" y="740.352"/>
      <point x="67.738" y="398.131" type="curve" smooth="yes"/>
      <point x="67.738" y="276.48"/>
      <point x="102.528" y="168.653"/>
      <point x="180.941" y="85.683" type="curve"/>
      <point x="110.925" y="0.153999" type="line"/>
      <point x="218.112" y="0.153999" type="line"/>
      <point x="247.091" y="35.43" type="line"/>
      <point x="314.394" y="-4.25"/>
      <point x="390.605" y="-20.48"/>
    </contour>
    <contour>
      <point x="297.267" y="231.066" type="line"/>
      <point x="267.187" y="274.458"/>
      <point x="254.131" y="328.397"/>
      <point x="254.131" y="385.382" type="curve" smooth="yes"/>
      <point x="254.131" y="626.765"/>
      <point x="421.043" y="915.942"/>
      <point x="689.229" y="915.942" type="curve" smooth="yes"/>
      <point x="736.384" y="915.942"/>
      <point x="781.517" y="907.878"/>
      <point x="818.893" y="886.605" type="curve"/>
    </contour>
    <contour>
      <point x="489.702" y="139.802" type="curve" smooth="yes"/>
      <point x="442.547" y="139.802"/>
      <point x="398.003" y="148.89"/>
      <point x="360.346" y="171.187" type="curve"/>
      <point x="883.149" y="828.621" type="line"/>
      <point x="913.51" y="784.358"/>
      <point x="925.824" y="729.549"/>
      <point x="925.824" y="671.693" type="curve" smooth="yes"/>
      <point x="925.824" y="427.802"/>
      <point x="760.243" y="139.802"/>
    </contour>
  </outline>
  <guideline angle="90" name="vertical" x="743" y="0"/>
</glyph>
<glyph name="dcaron" format="2">
  <advance width="1362"/>
  <unicode hex="010F"/>
  <outline>
    <contour>
      <point x="1395.08" y="1064.93" type="line"/>
      <point x="1723.04" y="1446.91" type="line"/>
      <point x="1480.27" y="1446.91" type="line"/>
      <point x="1266.08" y="1064.93" type="line"/>
    </contour>
    <contour>
      <point x="400.286" y="-20.48" type="curve" smooth="yes"/>
      <point x="540.933" y="-20.48"/>
      <point x="653.752" y="27.546"/>
      <point x="746.552" y="125.363" type="curve"/>
      <point x="722.795" y="0" type="line"/>
      <point x="902.046" y="0" type="line"/>
      <point x="1247.49" y="1446.91" type="line"/>
      <point x="1058.08" y="1446.91" type="line"/>
      <point x="926.034" y="926.259" type="line"/>
      <point x="866.187" y="1041.2"/>
      <point x="752.867" y="1085.44"/>
      <point x="626.77" y="1085.44" type="curve" smooth="yes"/>
      <point x="275.717" y="1085.44"/>
      <point x="63.518" y="678.477"/>
      <point x="63.518" y="367.539" type="curve" smooth="yes"/>
      <point x="63.518" y="150.682"/>
      <point x="166.558" y="-20.48"/>
    </contour>
    <contour>
      <point x="458.782" y="145.152" type="curve" smooth="yes"/>
      <point x="311.915" y="145.152"/>
      <point x="246.968" y="239.514"/>
      <point x="246.968" y="378.291" type="curve" smooth="yes"/>
      <point x="246.968" y="611.2"/>
      <point x="394.501" y="919.782"/>
      <point x="660.382" y="919.782" type="curve" smooth="yes"/>
      <point x="810.142" y="919.782"/>
      <point x="871.762" y="823.706"/>
      <point x="871.762" y="687.974" type="curve" smooth="yes"/>
      <point x="871.762" y="454.784"/>
      <point x="727.429" y="145.152"/>
    </contour>
  </outline>
</glyph>
<glyph name="Lcaron" format="2">
  <advance width="1072"/>
  <unicode hex="013D"/>
  <anchor x="521" y="1620" name="top"/>
  <anchor x="516.6" y="-120" name="bottom"/>
  <outline>
    <contour>
      <point x="902.064" y="0" type="line"/>
      <point x="941.898" y="176.87" type="line"/>
      <point x="322.813" y="176.87" type="line"/>
      <point x="615.779" y="1447.94" type="line"/>
      <point x="425.162" y="1447.94" type="line"/>
      <point x="91.773" y="0" type="line"/>
    </contour>
    <contour>
      <point x="904.225" y="1034.97" type="line"/>
      <point x="1224.35" y="1448" type="line"/>
      <point x="987.85" y="1448" type="line"/>
      <point x="778.675" y="1034.98" type="line"/>
    </contour>
  </outline>
</glyph>
<glyph name="ldot" format="2">
  <advance width="820"/>
  <unicode hex="0140"/>
  <anchor x="447.875" y="1620" name="top"/>
  <anchor x="186.4" y="-120" name="bottom"/>
  <outline>
    <contour>
      <point x="216.333" y="-20.48" type="curve" smooth="yes"/>
      <point x="262.976" y="-20.48"/>
      <point x="313.382" y="-14.336"/>
      <point x="366.682" y="-2.048" type="curve"/>
      <point x="394.56" y="150.733" type="line"/>
      <point x="357.44" y="142.669"/>
      <point x="325.824" y="138.419"/>
      <point x="299.712" y="138.419" type="curve" smooth="yes"/>
      <point x="270.067" y="138.419"/>
      <point x="250.022" y="151.885"/>
      <point x="250.022" y="176.461" type="curve"/>
      <point x="553.249" y="1447.94" type="line"/>
      <point x="361.956" y="1447.94" type="line"/>
      <point x="65.369" y="193.408" type="line" smooth="yes"/>
      <point x="58.231" y="164.294"/>
      <point x="52.339" y="136.499"/>
      <point x="52.339" y="108.979" type="curve" smooth="yes"/>
      <point x="52.339" y="11.93"/>
      <point x="116.13" y="-20.48"/>
    </contour>
    <contour>
      <point x="644.015" y="641.813" type="curve" smooth="yes"/>
      <point x="725.577" y="641.813"/>
      <point x="799.1" y="713.596"/>
      <point x="799.1" y="795.592" type="curve" smooth="yes"/>
      <point x="799.1" y="864.149"/>
      <point x="751.151" y="910.613"/>
      <point x="682.748" y="910.613" type="curve" smooth="yes"/>
      <point x="598.831" y="910.613"/>
      <point x="529.558" y="842.338"/>
      <point x="529.558" y="758.14" type="curve" smooth="yes"/>
      <point x="529.558" y="691.042"/>
      <point x="573.871" y="641.813"/>
    </contour>
  </outline>
</glyph>
<glyph name="Eng" format="2">
  <advance width="1460"/>
  <unicode hex="014A"/>
  <outline>
    <contour>
      <point x="724.373" y="-378.445" type="line" smooth="yes"/>
      <point x="988.258" y="-378.445"/>
      <point x="1076.3" y="-246.861"/>
      <point x="1131.46" y="-9.06241" type="curve" smooth="yes"/>
      <point x="1468.8" y="1447.94" type="line"/>
      <point x="1282.81" y="1447.94" type="line"/>
      <point x="1005.95" y="257.587" type="line"/>
      <point x="655.432" y="1447.94" type="line"/>
      <point x="421.806" y="1447.94" type="line"/>
      <point x="87.8288" y="0" type="line"/>
      <point x="275.426" y="0" type="line"/>
      <point x="552.443" y="1189.91" type="line"/>
      <point x="924.642" y="-52.6079" type="line" smooth="yes"/>
      <point x="927.278" y="-61.6959"/>
      <point x="929.045" y="-71.8079"/>
      <point x="929.045" y="-81.4847" type="curve" smooth="yes"/>
      <point x="929.045" y="-178.15"/>
      <point x="820.885" y="-244.48"/>
      <point x="700.539" y="-244.48" type="curve" smooth="yes"/>
      <point x="676.27" y="-244.48" type="line"/>
      <point x="651.438" y="-378.445" type="line"/>
    </contour>
  </outline>
</glyph>
<glyph name="OE" format="2">
  <advance width="2342"/>
  <unicode hex="0152"/>
  <outline>
    <contour>
      <point x="690.31" y="-20.48" type="curve" smooth="yes"/>
      <point x="902.739" y="-20.48"/>
      <point x="1076.05" y="56.166"/>
      <point x="1211.27" y="209.459" type="curve"/>
      <point x="1159.84" y="0" type="line"/>
      <point x="2099.44" y="0" type="line"/>
      <point x="2140.29" y="176.87" type="line"/>
      <point x="1390.88" y="176.87" type="line"/>
      <point x="1497.53" y="640.666" type="line"/>
      <point x="2166" y="640.666" type="line"/>
      <point x="2204.81" y="806.835" type="line"/>
      <point x="1537.52" y="806.835" type="line"/>
      <point x="1645.91" y="1278.82" type="line"/>
      <point x="2394.3" y="1278.82" type="line"/>
      <point x="2433.26" y="1447.94" type="line"/>
      <point x="1493.66" y="1447.94" type="line"/>
      <point x="1437.55" y="1217.69" type="line"/>
      <point x="1369.84" y="1390.69"/>
      <point x="1220.82" y="1468.42"/>
      <point x="1008.93" y="1468.42" type="curve" smooth="yes"/>
      <point x="491.654" y="1468.42"/>
      <point x="159.341" y="993.05"/>
      <point x="159.341" y="506.931" type="curve" smooth="yes"/>
      <point x="159.341" y="168.115"/>
      <point x="357.843" y="-20.48"/>
    </contour>
    <contour>
      <point x="712.352" y="158.31" type="curve" smooth="yes"/>
      <point x="482.694" y="158.31"/>
      <point x="352.186" y="286.899"/>
      <point x="352.186" y="516.378" type="curve" smooth="yes"/>
      <point x="352.186" y="882.278"/>
      <point x="575.392" y="1288.01"/>
      <point x="983.942" y="1288.01" type="curve" smooth="yes"/>
      <point x="1220.95" y="1288.01"/>
      <point x="1345.44" y="1157.66"/>
      <point x="1345.44" y="923.034" type="curve" smooth="yes"/>
      <point x="1345.44" y="562.867"/>
      <point x="1112.97" y="158.31"/>
    </contour>
  </outline>
</glyph>
<glyph name="oe" format="2">
  <advance width="1926"/>
  <unicode hex="0153"/>
  <outline>
    <contour>
      <point x="481.575" y="-20" type="curve" smooth="yes"/>
      <point x="660.1" y="-20"/>
      <point x="815.6" y="59.125"/>
      <point x="932.125" y="195.95" type="curve"/>
      <point x="992.175" y="45.65"/>
      <point x="1132.23" y="-12"/>
      <point x="1288.05" y="-12" type="curve" smooth="yes"/>
      <point x="1462.18" y="-12"/>
      <point x="1600.88" y="39.8"/>
      <point x="1741.25" y="153.025" type="curve"/>
      <point x="1631.08" y="276.775" type="line"/>
      <point x="1534.48" y="189.05"/>
      <point x="1432.05" y="155.25"/>
      <point x="1308.55" y="155.25" type="curve" smooth="yes"/>
      <point x="1153.75" y="155.25"/>
      <point x="1076.42" y="234.275"/>
      <point x="1076.42" y="373.025" type="curve" smooth="yes"/>
      <point x="1076.42" y="403.55"/>
      <point x="1080.72" y="435.075"/>
      <point x="1087.17" y="464.175" type="curve"/>
      <point x="1820.8" y="464.175" type="line"/>
      <point x="1849.07" y="541.225"/>
      <point x="1861.37" y="629.65"/>
      <point x="1861.37" y="711.55" type="curve" smooth="yes"/>
      <point x="1861.37" y="938.65"/>
      <point x="1727.05" y="1077"/>
      <point x="1487.55" y="1077" type="curve" smooth="yes"/>
      <point x="1315.85" y="1077"/>
      <point x="1181.28" y="999.125"/>
      <point x="1068.48" y="863.325" type="curve"/>
      <point x="1007.65" y="1000.4"/>
      <point x="883.475" y="1077"/>
      <point x="712.475" y="1077" type="curve" smooth="yes"/>
      <point x="357.925" y="1077"/>
      <point x="73.625" y="742.825"/>
      <point x="73.625" y="397.2" type="curve" smooth="yes"/>
      <point x="73.625" y="149.2"/>
      <point x="233.65" y="-20"/>
    </contour>
    <contour>
      <point x="493.725" y="139.4" type="curve" smooth="yes"/>
      <point x="337.05" y="139.4"/>
      <point x="259.5" y="236.95"/>
      <point x="259.5" y="381.4" type="curve" smooth="yes"/>
      <point x="259.5" y="624.975"/>
      <point x="426.375" y="915.325"/>
      <point x="696.25" y="915.325" type="curve" smooth="yes"/>
      <point x="854.225" y="915.325"/>
      <point x="929.9" y="822.375"/>
      <point x="929.9" y="676.05" type="curve" smooth="yes"/>
      <point x="929.9" y="430.025"/>
      <point x="766.325" y="139.4"/>
    </contour>
    <contour>
      <point x="1681.03" y="606.5" type="curve"/>
      <point x="1122.53" y="606.5" type="line"/>
      <point x="1170.65" y="771.975"/>
      <point x="1291.78" y="917.65"/>
      <point x="1473.15" y="917.65" type="curve" smooth="yes"/>
      <point x="1612.65" y="917.65"/>
      <point x="1698.23" y="859.025"/>
      <point x="1698.23" y="708.1" type="curve" smooth="yes"/>
      <point x="1698.23" y="674.125"/>
      <point x="1690.63" y="639.175"/>
    </contour>
  </outline>
</glyph>
<glyph name="scedilla" format="2">
  <advance width="922"/>
  <unicode hex="015F"/>
  <anchor x="541.55" y="1192" name="top"/>
  <anchor x="376.975" y="-120" name="bottom"/>
  <outline>
    <contour>
      <point x="10.1" y="239.72" type="line"/>
      <point x="68.98" y="110.59"/>
      <point x="187.25" y="17.07"/>
      <point x="323.76" y="-11.38" type="curve"/>
      <point x="192.05" y="-175.38" type="line"/>
      <point x="204.8" y="-197.32" type="line"/>
      <point x="258.94" y="-197.32" type="line" smooth="yes"/>
      <point x="340.78" y="-197.32"/>
      <point x="403.71" y="-232.88"/>
      <point x="403.71" y="-299.13" type="curve" smooth="yes"/>
      <point x="403.71" y="-369.43"/>
      <point x="358.37" y="-407.5"/>
      <point x="284.41" y="-407.5" type="curve" smooth="yes"/>
      <point x="245.14" y="-407.5"/>
      <point x="199.78" y="-383.43"/>
      <point x="193.18" y="-350.18" type="curve"/>
      <point x="74.26" y="-387.48" type="line"/>
      <point x="94.15" y="-462.18"/>
      <point x="190.38" y="-522.75"/>
      <point x="290.02" y="-522.75" type="curve" smooth="yes"/>
      <point x="435.02" y="-522.75"/>
      <point x="525.95" y="-440.9"/>
      <point x="525.95" y="-293.6" type="curve" smooth="yes"/>
      <point x="525.95" y="-202.9"/>
      <point x="460.75" y="-135.65"/>
      <point x="362.83" y="-118.11" type="curve"/>
      <point x="449.02" y="-18.76" type="line"/>
      <point x="631.52" y="-2.71"/>
      <point x="798.78" y="128.29"/>
      <point x="798.78" y="317.44" type="curve" smooth="yes" name=".sh01"/>
      <point x="798.78" y="472.74"/>
      <point x="686.04" y="523.1"/>
      <point x="578.04" y="578.46" type="curve" smooth="yes"/>
      <point x="415.19" y="661.93" type="line" smooth="yes"/>
      <point x="373.89" y="683.1"/>
      <point x="355.35" y="732.3"/>
      <point x="355.35" y="776.84" type="curve" smooth="yes"/>
      <point x="355.35" y="866.7"/>
      <point x="430.86" y="921.36"/>
      <point x="528.36" y="921.36" type="curve" smooth="yes"/>
      <point x="616.9" y="921.36" name=".sh04"/>
      <point x="700.29" y="866.58"/>
      <point x="736.83" y="784.42" type="curve"/>
      <point x="890.67" y="868.47" type="line"/>
      <point x="836.53" y="997.52"/>
      <point x="691.23" y="1083.55"/>
      <point x="533.09" y="1083.55" type="curve" smooth="yes"/>
      <point x="330.06" y="1083.55"/>
      <point x="157.47" y="941.73"/>
      <point x="157.47" y="748.48" type="curve" smooth="yes"/>
      <point x="157.47" y="606.32" name=".dv04"/>
      <point x="250.86" y="551.98"/>
      <point x="350.35" y="502.18" type="curve" smooth="yes"/>
      <point x="526.24" y="414.13" type="line" smooth="yes"/>
      <point x="574.02" y="390.21"/>
      <point x="598.84" y="339.41"/>
      <point x="598.84" y="290.24" type="curve" smooth="yes"/>
      <point x="598.84" y="194.04" name=".sh03"/>
      <point x="503.85" y="140.15"/>
      <point x="409.88" y="140.15" type="curve" smooth="yes"/>
      <point x="301.22" y="140.15"/>
      <point x="202.98" y="211.9"/>
      <point x="164.3" y="319.52" type="curve"/>
    </contour>
  </outline>
</glyph>
<glyph name="longs" format="2">
  <advance width="735"/>
  <unicode hex="017F"/>
  <outline>
    <contour>
      <point x="105.5" y="0" type="line"/>
      <point x="296.45" y="0" type="line"/>
      <point x="569.725" y="1137.53" type="line" smooth="yes"/>
      <point x="601.1" y="1266.75"/>
      <point x="660.05" y="1316.1"/>
      <point x="741.2" y="1316.1" type="curve" smooth="yes"/>
      <point x="777.25" y="1316.1"/>
      <point x="811.725" y="1308.95"/>
      <point x="844.775" y="1294.23" type="curve"/>
      <point x="927.2" y="1425.45" type="line"/>
      <point x="869.25" y="1454.15"/>
      <point x="811.275" y="1468"/>
      <point x="750.7" y="1468" type="curve" smooth="yes"/>
      <point x="506.275" y="1468"/>
      <point x="422.425" y="1336.65"/>
      <point x="373.55" y="1145.67" type="curve" smooth="yes"/>
      <point x="350.925" y="1062" type="line"/>
      <point x="155.075" y="1062" type="line"/>
      <point x="119.875" y="914.225" type="line"/>
      <point x="315.025" y="914.225" type="line"/>
    </contour>
  </outline>
</glyph>
<glyph name="aturned" format="2">
  <advance width="1175"/>
  <unicode hex="0250"/>
  <outline>
    <contour>
      <point x="783.039" y="1084.48" type="curve" smooth="yes"/>
      <point x="648.28" y="1084.48"/>
      <point x="526.629" y="1031.74"/>
      <point x="436.773" y="938.637" type="curve"/>
      <point x="460.53" y="1064" type="line"/>
      <point x="281.279" y="1064" type="line"/>
      <point x="36.696" y="0.0639648" type="line"/>
      <point x="226.111" y="0.0639648" type="line"/>
      <point x="261.541" y="139.2" type="line"/>
      <point x="321.675" y="24.256"/>
      <point x="430.936" y="-20.416"/>
      <point x="556.555" y="-20.416" type="curve" smooth="yes"/>
      <point x="907.608" y="-20.416"/>
      <point x="1119.81" y="386.112"/>
      <point x="1119.81" y="696.461" type="curve" smooth="yes"/>
      <point x="1119.81" y="913.318"/>
      <point x="1015" y="1084.48"/>
    </contour>
    <contour>
      <point x="725.131" y="918.848" type="curve" smooth="yes"/>
      <point x="871.999" y="918.848"/>
      <point x="936.357" y="824.486"/>
      <point x="936.357" y="685.709" type="curve" smooth="yes"/>
      <point x="936.357" y="452.8"/>
      <point x="788.824" y="145.242"/>
      <point x="522.943" y="145.242" type="curve" smooth="yes"/>
      <point x="373.183" y="145.242"/>
      <point x="312.152" y="241.165"/>
      <point x="312.152" y="376.896" type="curve" smooth="yes"/>
      <point x="312.152" y="611.264"/>
      <point x="455.307" y="918.848"/>
    </contour>
  </outline>
</glyph>
<glyph name="hungarumlaut" format="2">
  <advance width="877"/>
  <unicode hex="02DD"/>
  <outline>
    <contour>
      <point x="354.719" y="1191.94" type="line"/>
      <point x="700.805" y="1502.77" type="line"/>
      <point x="498.36" y="1502.77" type="line"/>
      <point x="202.501" y="1191.94" type="line"/>
    </contour>
    <contour>
      <point x="698.706" y="1191.94" type="line"/>
      <point x="1061.46" y="1502.77" type="line"/>
      <point x="841.759" y="1502.77" type="line"/>
      <point x="546.488" y="1191.94" type="line"/>
    </contour>
  </outline>
</glyph>
<glyph name="commaturnedabovecomb" format="2">
  <unicode hex="0312"/>
  <anchor x="-197.15" y="1192" name="_top"/>
  <outline>
    <contour>
      <point x="-72.275" y="1192" type="line"/>
      <point x="137.65" y="1495.92" type="line"/>
      <point x="15.525" y="1495.92" type="line"/>
      <point x="-304.075" y="1192" type="line"/>
    </contour>
  </outline>
</glyph>
<glyph name="dotbelowcomb" format="2">
  <unicode hex="0323"/>
  <anchor x="-327.025" y="-120" name="_bottom"/>
  <outline>
    <contour>
      <point x="-270.848" y="-325.73" type="line"/>
      <point x="-223.923" y="-120.06" type="line"/>
      <point x="-425.421" y="-120.06" type="line"/>
      <point x="-472.934" y="-325.73" type="line"/>
    </contour>
  </outline>
</glyph>
<glyph name="ogonekcomb" format="2">
  <unicode hex="0328"/>
  <anchor x="-268.55" y="0" name="_ogonek"/>
  <outline>
    <contour>
      <point x="-496.246" y="-461.824" type="curve" smooth="yes"/>
      <point x="-401.142" y="-461.824"/>
      <point x="-329.666" y="-421.734"/>
      <point x="-262.825" y="-349.056" type="curve"/>
      <point x="-358.262" y="-260.506" type="line"/>
      <point x="-399.068" y="-304.538"/>
      <point x="-444.431" y="-329.421"/>
      <point x="-498.908" y="-329.421" type="curve" smooth="yes"/>
      <point x="-534.492" y="-329.421"/>
      <point x="-554.383" y="-310.784"/>
      <point x="-554.383" y="-276.378" type="curve" smooth="yes"/>
      <point x="-554.383" y="-142.029"/>
      <point x="-374.748" y="-44.747"/>
      <point x="-268.354" y="0" type="curve"/>
      <point x="-429.43" y="0" type="line"/>
      <point x="-529.142" y="-51.925"/>
      <point x="-682.102" y="-182.477"/>
      <point x="-682.102" y="-289.382" type="curve" smooth="yes"/>
      <point x="-682.102" y="-402.586"/>
      <point x="-604.047" y="-461.824"/>
    </contour>
  </outline>
</glyph>
<glyph name="tonos" format="2">
  <advance width="378"/>
  <unicode hex="0384"/>
  <outline>
    <contour>
      <point x="494.775" y="1479" type="line"/>
      <point x="302.2" y="1479" type="line"/>
      <point x="100.075" y="1048.58" type="line"/>
      <point x="215.35" y="1048.58" type="line"/>
    </contour>
  </outline>
</glyph>
<glyph name="Delta" format="2">
  <advance width="1473"/>
  <unicode hex="0394"/>
  <outline>
    <contour>
      <point x="188.437" y="167.629" type="line"/>
      <point x="197.296" y="142.797" type="line"/>
      <point x="969.589" y="1257.17" type="line"/>
      <point x="942.351" y="1257.17" type="line"/>
      <point x="1208.29" y="142.797" type="line"/>
      <point x="1228.62" y="167.629" type="line"/>
    </contour>
    <contour>
      <point x="-15.229" y="0" type="line"/>
      <point x="1354.88" y="0" type="line"/>
      <point x="1390.37" y="153.702" type="line"/>
      <point x="1087.82" y="1447.94" type="line"/>
      <point x="914.253" y="1447.94" type="line"/>
      <point x="20.2561" y="153.702" type="line"/>
    </contour>
  </outline>
  <guideline angle="245.98" x="735.232" y="1292.29"/>
  <guideline angle="65.9535" x="38.912" y="184.32"/>
  <guideline angle="114.28" x="1216.51" y="161.792"/>
  <guideline angle="294.273" x="825.344" y="1478.66"/>
</glyph>
<glyph name="Theta" format="2">
  <advance width="1544"/>
  <unicode hex="0398"/>
  <outline>
    <contour>
      <point x="1261.12" y="645.425" type="line"/>
      <point x="1300.17" y="814.3" type="line"/>
      <point x="620.675" y="814.3" type="line"/>
      <point x="581.2" y="645.425" type="line"/>
    </contour>
    <contour>
      <point x="769.575" y="-20" type="qcurve" smooth="yes"/>
      <point x="921.8" y="-20"/>
      <point x="1189.73" y="85.975"/>
      <point x="1404.4" y="280.1"/>
      <point x="1559.25" y="554.825"/>
      <point x="1598.4" y="724" type="qcurve" smooth="yes"/>
      <point x="1637.55" y="893.175"/>
      <point x="1609.28" y="1168.32"/>
      <point x="1484.45" y="1362.45"/>
      <point x="1265.38" y="1468"/>
      <point x="1113.15" y="1468" type="qcurve" smooth="yes"/>
      <point x="960.925" y="1468"/>
      <point x="693.85" y="1362.45"/>
      <point x="477.6" y="1167.75"/>
      <point x="323.325" y="893.175"/>
      <point x="284.6" y="724" type="qcurve" smooth="yes"/>
      <point x="245.45" y="555.4"/>
      <point x="273.3" y="280.675"/>
      <point x="399.125" y="85.975"/>
      <point x="617.35" y="-20"/>
    </contour>
    <contour>
      <point x="809.35" y="153.075" type="qcurve" smooth="yes"/>
      <point x="694.925" y="153.075"/>
      <point x="541.55" y="237.075"/>
      <point x="460.45" y="387.7"/>
      <point x="449.675" y="597.85"/>
      <point x="478.425" y="724" type="qcurve" smooth="yes"/>
      <point x="507.6" y="851.85"/>
      <point x="616.575" y="1061.85"/>
      <point x="768.125" y="1212.2"/>
      <point x="960.65" y="1294.93"/>
      <point x="1072.8" y="1294.93" type="qcurve" smooth="yes"/>
      <point x="1186.8" y="1294.93"/>
      <point x="1340.75" y="1211.35"/>
      <point x="1422.27" y="1060.58"/>
      <point x="1432.9" y="851"/>
      <point x="1403.72" y="724" type="qcurve" smooth="yes"/>
      <point x="1374.55" y="596.15"/>
      <point x="1265.57" y="385.575"/>
      <point x="1114.6" y="235.8"/>
      <point x="922.5" y="153.075"/>
    </contour>
  </outline>
</glyph>
<glyph name="Phi" format="2">
  <advance width="1538"/>
  <unicode hex="03A6"/>
  <outline>
    <contour>
      <point x="527.85" y="-2" type="line"/>
      <point x="724.55" y="-2" type="line"/>
      <point x="1060.12" y="1448" type="line"/>
      <point x="863" y="1448" type="line"/>
    </contour>
    <contour>
      <point x="730.275" y="129.875" type="line"/>
      <point x="779.15" y="129.875" type="line" smooth="yes"/>
      <point x="900.525" y="129.875"/>
      <point x="1112.2" y="200.4"/>
      <point x="1284.05" y="352.8"/>
      <point x="1412.65" y="592.675"/>
      <point x="1451.38" y="761.45" type="qcurve" smooth="yes"/>
      <point x="1485.53" y="909.775"/>
      <point x="1461.23" y="1127.2"/>
      <point x="1356.65" y="1269.45"/>
      <point x="1177.53" y="1337.55"/>
      <point x="1057.15" y="1337.55" type="qcurve" smooth="yes"/>
      <point x="1009.13" y="1337.55" type="line"/>
      <point x="968.775" y="1164.05" type="line"/>
      <point x="1022.38" y="1164.05" type="line" smooth="yes"/>
      <point x="1176.98" y="1164.05"/>
      <point x="1301.78" y="970.675"/>
      <point x="1252.45" y="755.075" type="qcurve" smooth="yes"/>
      <point x="1224.7" y="635.5"/>
      <point x="1143.6" y="465.475"/>
      <point x="1035.75" y="355.675"/>
      <point x="902.45" y="304.8"/>
      <point x="824.075" y="304.8" type="qcurve" smooth="yes"/>
      <point x="770.475" y="304.8" type="line"/>
    </contour>
    <contour>
      <point x="582.85" y="129.875" type="line"/>
      <point x="623.05" y="304.8" type="line"/>
      <point x="572.15" y="304.8" type="line" smooth="yes"/>
      <point x="425.425" y="304.8"/>
      <point x="315.35" y="519.65"/>
      <point x="370.125" y="754.775" type="qcurve" smooth="yes"/>
      <point x="419.45" y="969.225"/>
      <point x="624.3" y="1164.05"/>
      <point x="768.75" y="1164.05" type="qcurve" smooth="yes"/>
      <point x="821.35" y="1164.05" type="line"/>
      <point x="861.7" y="1337.55" type="line"/>
      <point x="814.25" y="1337.55" type="line" smooth="yes"/>
      <point x="699.15" y="1337.55"/>
      <point x="496.05" y="1268.88"/>
      <point x="330.775" y="1126.62"/>
      <point x="207.9" y="909.2"/>
      <point x="173.75" y="761.45" type="qcurve" smooth="yes"/>
      <point x="135.025" y="593.25"/>
      <point x="149.9" y="353.375"/>
      <point x="245.625" y="200.975"/>
      <point x="416.75" y="129.875"/>
      <point x="533.7" y="129.875" type="qcurve" smooth="yes"/>
    </contour>
  </outline>
</glyph>
<glyph name="theta" format="2">
  <advance width="1081"/>
  <unicode hex="03B8"/>
  <outline>
    <contour>
      <point x="965.575" y="595.625" type="curve" smooth="yes"/>
      <point x="1036.75" y="904.775" type="line" smooth="yes"/>
      <point x="1136.01" y="1335.7"/>
      <point x="1030.23" y="1504.12"/>
      <point x="757" y="1504.12" type="curve" smooth="yes"/>
      <point x="492.691" y="1504.12"/>
      <point x="313.85" y="1343.75"/>
      <point x="212.825" y="905.35" type="curve" smooth="yes"/>
      <point x="141.075" y="595.625" type="line" smooth="yes"/>
      <point x="37.635" y="150.313"/>
      <point x="130.153" y="-25.55"/>
      <point x="409.85" y="-25.55" type="curve" smooth="yes"/>
      <point x="690.293" y="-25.55"/>
      <point x="862.115" y="150.224"/>
    </contour>
    <contour>
      <point x="735.725" y="1385.53" type="curve" smooth="yes"/>
      <point x="914.022" y="1385.53"/>
      <point x="942.636" y="1262.98"/>
      <point x="862.75" y="915.675" type="curve" smooth="yes"/>
      <point x="786.55" y="586.15" type="line" smooth="yes"/>
      <point x="706.58" y="241.144"/>
      <point x="615.064" y="92.9"/>
      <point x="437.25" y="92.9" type="curve" smooth="yes"/>
      <point x="258.446" y="92.9"/>
      <point x="235.65" y="240.135"/>
      <point x="315.5" y="586.15" type="curve" smooth="yes"/>
      <point x="391.7" y="915.675" type="line" smooth="yes"/>
      <point x="471.591" y="1263"/>
      <point x="558.198" y="1385.53"/>
    </contour>
    <contour>
      <point x="909.825" y="831.55" type="line"/>
      <point x="305.075" y="831.55" type="line"/>
      <point x="276.15" y="706.45" type="line"/>
      <point x="880.9" y="706.45" type="line"/>
    </contour>
  </outline>
</glyph>
<glyph name="pi" format="2">
  <advance width="1282"/>
  <unicode hex="03C0"/>
  <outline>
    <contour>
      <point x="96.7448" y="913.034" type="line"/>
      <point x="1272.03" y="913.034" type="line"/>
      <point x="1306.78" y="1063.54" type="line"/>
      <point x="131.492" y="1063.54" type="line"/>
    </contour>
    <contour>
      <point x="264.374" y="942.561" type="line"/>
      <point x="46.766" y="0" type="line"/>
      <point x="250.16" y="0" type="line"/>
      <point x="467.767" y="942.561" type="line"/>
    </contour>
    <contour>
      <point x="908.236" y="941.079" type="line"/>
      <point x="728.723" y="163.524" type="line" smooth="yes"/>
      <point x="724.69" y="146.056"/>
      <point x="722.231" y="128.148"/>
      <point x="722.231" y="110.199" type="curve" smooth="yes"/>
      <point x="722.231" y="22.833"/>
      <point x="779.949" y="-17.659"/>
      <point x="863.229" y="-17.659" type="curve" smooth="yes"/>
      <point x="930.026" y="-17.659"/>
      <point x="996.865" y="-13.298"/>
      <point x="1062.84" y="-2.96401" type="curve"/>
      <point x="1094.73" y="135.136" type="line"/>
      <point x="1069.03" y="130.354"/>
      <point x="1042.12" y="125.967"/>
      <point x="1015.91" y="125.967" type="curve" smooth="yes"/>
      <point x="973.36" y="125.967"/>
      <point x="940.695" y="141.36"/>
      <point x="940.695" y="188.074" type="curve" smooth="yes"/>
      <point x="940.695" y="199.433"/>
      <point x="942.48" y="210.754"/>
      <point x="945.03" y="221.798" type="curve" smooth="yes"/>
      <point x="1111.09" y="941.079" type="line"/>
    </contour>
  </outline>
</glyph>
<glyph name="sigmafinal" format="2">
  <advance width="1078"/>
  <unicode hex="03C2"/>
  <outline>
    <contour>
      <point x="712.8" y="1065.28" type="curve" smooth="yes"/>
      <point x="332.772" y="1065.28"/>
      <point x="76.2539" y="774.935"/>
      <point x="76.2539" y="401.325" type="curve" smooth="yes"/>
      <point x="76.2539" y="233.181"/>
      <point x="152.972" y="123.292"/>
      <point x="317.05" y="77.35" type="curve" smooth="yes"/>
      <point x="648.875" y="-15.275" type="line" smooth="yes"/>
      <point x="675.392" y="-22.6768"/>
      <point x="683.921" y="-45.036"/>
      <point x="683.921" y="-70.4571" type="curve" smooth="yes"/>
      <point x="683.921" y="-162.061"/>
      <point x="579.347" y="-338.314"/>
      <point x="526.325" y="-416.8" type="curve"/>
      <point x="695" y="-416.8" type="line"/>
      <point x="767.42" y="-314.621"/>
      <point x="863.272" y="-146.943"/>
      <point x="863.272" y="-22.4105" type="curve" smooth="yes"/>
      <point x="863.272" y="35.2693"/>
      <point x="841.106" y="83.9678"/>
      <point x="782.549" y="101.775" type="curve" smooth="yes"/>
      <point x="423.624" y="210.925" type="line" smooth="yes"/>
      <point x="309.971" y="245.487"/>
      <point x="268.239" y="362.741"/>
      <point x="268.239" y="477.537" type="curve" smooth="yes"/>
      <point x="268.239" y="702.024"/>
      <point x="422.633" y="934.625"/>
      <point x="663.975" y="934.625" type="curve" smooth="yes"/>
      <point x="802.859" y="934.625"/>
      <point x="892.026" y="871.555"/>
      <point x="892.026" y="724.862" type="curve" smooth="yes"/>
      <point x="892.026" y="698.337"/>
      <point x="889.125" y="671.838"/>
      <point x="884.45" y="645.75" type="curve"/>
      <point x="1062.55" y="645.75" type="line"/>
      <point x="1069.28" y="679.868"/>
      <point x="1073.33" y="714.613"/>
      <point x="1073.33" y="749.416" type="curve" smooth="yes"/>
      <point x="1073.33" y="966.664"/>
      <point x="913.814" y="1065.28"/>
    </contour>
  </outline>
</glyph>
<glyph name="upsilon" format="2">
  <advance width="1189"/>
  <unicode hex="03C5"/>
  <outline>
    <contour>
      <point x="123.375" y="329.1" type="line" smooth="yes"/>
      <point x="101.95" y="236.55"/>
      <point x="137.6" y="103"/>
      <point x="227.375" y="17.15"/>
      <point x="357.875" y="-24.275"/>
      <point x="431.025" y="-24.275" type="qcurve" smooth="yes"/>
      <point x="510.1" y="-24.275" type="line" smooth="yes"/>
      <point x="570.975" y="-24.275"/>
      <point x="717.05" y="18.3"/>
      <point x="853.675" y="105.15"/>
      <point x="959.725" y="238.125"/>
      <point x="981.15" y="329.1" type="qcurve" smooth="yes"/>
      <point x="1145.13" y="1041" type="line"/>
      <point x="965.725" y="1041" type="line"/>
      <point x="807" y="356.525" type="line" smooth="yes"/>
      <point x="789" y="278.825"/>
      <point x="733.375" y="180.525"/>
      <point x="656.45" y="125.5"/>
      <point x="560.375" y="105.325"/>
      <point x="500.65" y="105.325" type="qcurve" smooth="yes"/>
      <point x="453.75" y="105.325"/>
      <point x="368.825" y="124.35"/>
      <point x="311.775" y="179.375"/>
      <point x="291.75" y="277.675"/>
      <point x="310.175" y="356.525" type="qcurve" smooth="yes"/>
      <point x="467.9" y="1041" type="line"/>
      <point x="287.925" y="1041" type="line"/>
    </contour>
  </outline>
</glyph>
<glyph name="phi" format="2">
  <advance width="1473"/>
  <unicode hex="03C6"/>
  <outline>
    <contour>
      <point x="404.175" y="-416.8" type="line"/>
      <point x="586.425" y="-416.8" type="line"/>
      <point x="900.425" y="941.9" type="line"/>
      <point x="1082.42" y="941.9"/>
      <point x="1227.62" y="729.4"/>
      <point x="1183.05" y="536.525" type="qcurve" smooth="yes"/>
      <point x="1159.47" y="434.225"/>
      <point x="1065.1" y="274.45"/>
      <point x="935.125" y="166.25"/>
      <point x="772.15" y="110.5"/>
      <point x="680.975" y="113.225" type="qcurve"/>
      <point x="651.45" y="-14" type="line"/>
      <point x="779.25" y="-14"/>
      <point x="1011.47" y="66.275"/>
      <point x="1198.72" y="212.825"/>
      <point x="1332" y="418.925"/>
      <point x="1360.85" y="543.75" type="qcurve" smooth="yes"/>
      <point x="1389.27" y="667.6"/>
      <point x="1357.42" y="862.725"/>
      <point x="1238.75" y="997.425"/>
      <point x="1036.98" y="1068.7"/>
      <point x="896.75" y="1068.7" type="qcurve" smooth="yes"/>
      <point x="747.125" y="1068.7" type="line"/>
    </contour>
    <contour>
      <point x="555.075" y="113.225" type="line"/>
      <point x="463.6" y="110.925"/>
      <point x="327.5" y="166.675"/>
      <point x="247.7" y="275.45"/>
      <point x="226.65" y="433.95"/>
      <point x="249.225" y="533.4" type="qcurve" smooth="yes"/>
      <point x="267.65" y="613.25"/>
      <point x="325.8" y="739.7"/>
      <point x="407.825" y="838.15"/>
      <point x="509.875" y="908.875"/>
      <point x="572.35" y="932.15" type="qcurve"/>
      <point x="599.875" y="1051.25" type="line"/>
      <point x="506.5" y="1038.82"/>
      <point x="337.35" y="955.7"/>
      <point x="199.75" y="823.3"/>
      <point x="98.825" y="646.05"/>
      <point x="74.4" y="540.35" type="qcurve" smooth="yes"/>
      <point x="44.55" y="411.95"/>
      <point x="79.55" y="206.55"/>
      <point x="198.1" y="62.425"/>
      <point x="393.75" y="-14"/>
      <point x="525.55" y="-14" type="qcurve"/>
    </contour>
  </outline>
</glyph>
<glyph name="Djecyr" format="2">
  <advance width="1632"/>
  <unicode hex="0402"/>
  <outline>
    <contour>
      <point x="988.875" y="-18.275" type="curve" smooth="yes"/>
      <point x="1321.98" y="-18.275"/>
      <point x="1524.78" y="233.1"/>
      <point x="1524.78" y="601.625" type="curve" smooth="yes"/>
      <point x="1524.78" y="865.125"/>
      <point x="1364.38" y="1024.42"/>
      <point x="1099.38" y="1024.42" type="curve" smooth="yes"/>
      <point x="965.075" y="1024.42"/>
      <point x="840.85" y="978.875"/>
      <point x="725.125" y="898.575" type="curve"/>
      <point x="643.15" y="898.575" type="line"/>
      <point x="643.15" y="672.175" type="line"/>
      <point x="689.95" y="672.175" type="line"/>
      <point x="786.8" y="778.775"/>
      <point x="938" y="842.425"/>
      <point x="1081.75" y="842.425" type="curve" smooth="yes"/>
      <point x="1234.02" y="842.425"/>
      <point x="1335.5" y="740.775"/>
      <point x="1335.5" y="587.6" type="curve" smooth="yes"/>
      <point x="1335.5" y="339.2"/>
      <point x="1201.85" y="157.3"/>
      <point x="1009.5" y="157.3" type="curve" smooth="yes"/>
      <point x="921.85" y="157.3"/>
      <point x="851.475" y="174.575"/>
      <point x="814.875" y="234.425" type="curve"/>
      <point x="684.875" y="116" type="line"/>
      <point x="751.575" y="26.025"/>
      <point x="879.25" y="-18.275"/>
    </contour>
    <contour>
      <point x="844.125" y="1286.3" type="line"/>
      <point x="1322.27" y="1286.3" type="line"/>
      <point x="1359.6" y="1448" type="line"/>
      <point x="212" y="1448" type="line"/>
      <point x="173.1" y="1286.3" type="line"/>
      <point x="652.975" y="1286.3" type="line"/>
      <point x="357.45" y="0" type="line"/>
      <point x="547.875" y="0" type="line"/>
    </contour>
  </outline>
</glyph>
<glyph name="Ljecyr" format="2">
  <advance width="2058"/>
  <unicode hex="0409"/>
  <outline>
    <contour>
      <point x="1145.53" y="0" type="line"/>
      <point x="1478.53" y="1448" type="line"/>
      <point x="573.45" y="1448" type="line"/>
      <point x="537.4" y="1280.3" type="line"/>
      <point x="1249.5" y="1280.3" type="line"/>
      <point x="956.25" y="0" type="line"/>
    </contour>
    <contour>
      <point x="92.125" y="-20" type="curve" smooth="yes"/>
      <point x="308.7" y="-20"/>
      <point x="398.8" y="215.95"/>
      <point x="498.9" y="591.975" type="curve" smooth="yes"/>
      <point x="682.85" y="1280.3" type="line"/>
      <point x="788.425" y="1280.3" type="line"/>
      <point x="788.425" y="1448" type="line"/>
      <point x="532.025" y="1448" type="line"/>
      <point x="313.7" y="619.85" type="line" smooth="yes"/>
      <point x="224.475" y="283.45"/>
      <point x="162.7" y="168.45"/>
      <point x="76.875" y="168.45" type="curve" smooth="yes"/>
      <point x="57.175" y="168.45"/>
      <point x="39.325" y="174.575"/>
      <point x="20.175" y="188.425" type="curve"/>
      <point x="-67.65" y="31.325" type="line"/>
      <point x="-22.15" y="0.249975"/>
      <point x="33.825" y="-20"/>
    </contour>
    <contour>
      <point x="1384" y="0" type="line" smooth="yes"/>
      <point x="1694.17" y="0"/>
      <point x="1933.6" y="181.375"/>
      <point x="1933.6" y="484.775" type="curve" smooth="yes"/>
      <point x="1933.6" y="693.675"/>
      <point x="1764.97" y="789.925"/>
      <point x="1542.77" y="789.925" type="curve" smooth="yes"/>
      <point x="1207.2" y="789.925" type="line"/>
      <point x="1207.2" y="621.35" type="line"/>
      <point x="1514.72" y="621.35" type="line" smooth="yes"/>
      <point x="1644.92" y="621.35"/>
      <point x="1751.45" y="581.4"/>
      <point x="1751.45" y="455.525" type="curve" smooth="yes"/>
      <point x="1751.45" y="279.9"/>
      <point x="1594.37" y="169.575"/>
      <point x="1398.87" y="169.575" type="curve" smooth="yes"/>
      <point x="1078.25" y="169.575" type="line"/>
      <point x="1078.25" y="0" type="line"/>
    </contour>
  </outline>
</glyph>
<glyph name="Dzhecyr" format="2">
  <advance width="1497"/>
  <unicode hex="040F"/>
  <outline>
    <contour>
      <point x="1017.1" y="0" type="line"/>
      <point x="1056.15" y="168.85" type="line"/>
      <point x="283.45" y="168.85" type="line"/>
      <point x="241.85" y="0" type="line"/>
    </contour>
    <contour>
      <point x="651.85" y="-314.575" type="line"/>
      <point x="732.275" y="31" type="line"/>
      <point x="542.425" y="31" type="line"/>
      <point x="462" y="-314.575" type="line"/>
    </contour>
    <contour>
      <point x="282.15" y="0" type="line"/>
      <point x="615.15" y="1448" type="line"/>
      <point x="423.725" y="1448" type="line"/>
      <point x="91.15" y="0" type="line"/>
    </contour>
    <contour>
      <point x="1172.15" y="0" type="line"/>
      <point x="1505.15" y="1448" type="line"/>
      <point x="1313.73" y="1448" type="line"/>
      <point x="981.15" y="0" type="line"/>
    </contour>
  </outline>
</glyph>
<glyph name="Decyr" format="2">
  <advance width="1487"/>
  <unicode hex="0414"/>
  <outline>
    <contour>
      <point x="1165.9" y="139.138" type="line"/>
      <point x="1468.58" y="1448" type="line"/>
      <point x="735.65" y="1448" type="line"/>
      <point x="735.65" y="1280.3" type="line"/>
      <point x="1239.98" y="1280.3" type="line"/>
      <point x="976.625" y="139.138" type="line"/>
    </contour>
    <contour>
      <point x="93.125" y="4.875" type="line"/>
      <point x="309.7" y="4.875"/>
      <point x="401.8" y="215.95"/>
      <point x="501.9" y="591.975" type="curve" smooth="yes"/>
      <point x="685.85" y="1280.3" type="line"/>
      <point x="791.425" y="1280.3" type="line"/>
      <point x="791.425" y="1448" type="line"/>
      <point x="535.025" y="1448" type="line"/>
      <point x="316.7" y="619.85" type="line" smooth="yes"/>
      <point x="227.475" y="283.45"/>
      <point x="165.7" y="167.3"/>
      <point x="79.875" y="167.3" type="curve"/>
    </contour>
    <contour>
      <point x="1199.1" y="-315" type="line"/>
      <point x="1311.57" y="169.425" type="line"/>
      <point x="222.1" y="169.425" type="line"/>
      <point x="222.1" y="0" type="line"/>
      <point x="1084.55" y="0" type="line"/>
      <point x="1010.4" y="-315" type="line"/>
    </contour>
    <contour>
      <point x="413.2" y="169.425" type="line"/>
      <point x="-30.475" y="169.425" type="line"/>
      <point x="-142.95" y="-315" type="line"/>
      <point x="46.9" y="-315" type="line"/>
      <point x="120.9" y="0" type="line"/>
      <point x="413.2" y="0" type="line"/>
    </contour>
  </outline>
  <guideline angle="256.978" x="1288" y="1333"/>
  <guideline angle="76.6824" x="621" y="919"/>
</glyph>
<glyph name="Ucyr" format="2">
  <advance width="1114"/>
  <unicode hex="0423"/>
  <anchor x="786" y="1620" name="top"/>
  <outline>
    <contour>
      <point x="329.25" y="0" type="line"/>
      <point x="1295" y="1448" type="line"/>
      <point x="1082.7" y="1448" type="line"/>
      <point x="558.925" y="645.35" type="line"/>
      <point x="580.925" y="641.35" type="line"/>
      <point x="455.15" y="1448" type="line"/>
      <point x="253.15" y="1448" type="line"/>
      <point x="436.7" y="437.425" type="line"/>
      <point x="448.275" y="493.425" type="line"/>
      <point x="121.975" y="0" type="line"/>
    </contour>
  </outline>
  <guideline angle="280.15" x="271" y="1448"/>
  <guideline angle="90" name="vertical" x="786" y="0"/>
</glyph>
<glyph name="Shchacyr" format="2">
  <advance width="1821"/>
  <unicode hex="0429"/>
  <outline>
    <contour>
      <point x="1477.93" y="0" type="line"/>
      <point x="1810.93" y="1448" type="line"/>
      <point x="1620.5" y="1448" type="line"/>
      <point x="1318.4" y="138.85" type="line"/>
      <point x="1443.2" y="0" type="line"/>
    </contour>
    <contour>
      <point x="308.475" y="138.85" type="line"/>
      <point x="611.15" y="1448" type="line"/>
      <point x="419.725" y="1448" type="line"/>
      <point x="87.15" y="0" type="line"/>
      <point x="120.875" y="0" type="line"/>
    </contour>
    <contour>
      <point x="908.575" y="138.85" type="line"/>
      <point x="1211.83" y="1448" type="line"/>
      <point x="1020.4" y="1448" type="line"/>
      <point x="717.725" y="138.85" type="line"/>
    </contour>
    <contour>
      <point x="1477.93" y="0" type="line"/>
      <point x="1484.35" y="26.85" type="line"/>
      <point x="1356.4" y="169.425" type="line"/>
      <point x="284.475" y="169.425" type="line"/>
      <point x="93.575" y="27.275" type="line"/>
      <point x="87.15" y="0" type="line"/>
    </contour>
    <contour>
      <point x="1548.43" y="-315" type="line"/>
      <point x="1660.9" y="169.425" type="line"/>
      <point x="571.425" y="169.425" type="line"/>
      <point x="571.425" y="0" type="line"/>
      <point x="1433.88" y="0" type="line"/>
      <point x="1359.73" y="-315" type="line"/>
    </contour>
  </outline>
</glyph>
<glyph name="Yucyr" format="2">
  <advance width="1933"/>
  <unicode hex="042E"/>
  <outline>
    <contour>
      <point x="1069.93" y="-20.48" type="curve" smooth="yes"/>
      <point x="1585.68" y="-20.48"/>
      <point x="1919.18" y="456.178"/>
      <point x="1919.24" y="940.723" type="curve" smooth="yes"/>
      <point x="1919.28" y="1279.16"/>
      <point x="1721.06" y="1468.42"/>
      <point x="1389.29" y="1468.42" type="curve" smooth="yes"/>
      <point x="879.499" y="1468.42"/>
      <point x="539.865" y="976.116"/>
      <point x="539.856" y="503.142" type="curve" smooth="yes"/>
      <point x="539.85" y="164.34"/>
      <point x="740.375" y="-20.48"/>
    </contour>
    <contour>
      <point x="1084.5" y="152.218" type="curve" smooth="yes"/>
      <point x="850.346" y="152.23"/>
      <point x="731.139" y="285.478"/>
      <point x="731.139" y="515.738" type="curve" smooth="yes"/>
      <point x="731.139" y="878.419"/>
      <point x="970.05" y="1294.69"/>
      <point x="1372.24" y="1294.69" type="curve" smooth="yes"/>
      <point x="1607.56" y="1294.7"/>
      <point x="1728.23" y="1160.96"/>
      <point x="1728.23" y="928.973" type="curve" smooth="yes"/>
      <point x="1728.23" y="565.43"/>
      <point x="1484.56" y="152.196"/>
    </contour>
    <contour>
      <point x="619.523" y="807.091" type="line"/>
      <point x="422.173" y="806.788" type="line"/>
      <point x="383.21" y="639.447" type="line"/>
      <point x="582.608" y="639.714" type="line"/>
    </contour>
    <contour>
      <point x="271.15" y="0" type="line"/>
      <point x="604.15" y="1448" type="line"/>
      <point x="412.725" y="1448" type="line"/>
      <point x="80.15" y="0" type="line"/>
    </contour>
  </outline>
</glyph>
<glyph name="vecyr" format="2">
  <advance width="1027"/>
  <unicode hex="0432"/>
  <outline>
    <contour>
      <point x="460.577" y="0" type="curve" smooth="yes"/>
      <point x="732.548" y="0"/>
      <point x="905.586" y="142.85"/>
      <point x="905.586" y="366.49" type="curve" smooth="yes"/>
      <point x="905.586" y="473.844"/>
      <point x="861.84" y="536.249"/>
      <point x="767.796" y="563.475" type="curve"/>
      <point x="906.062" y="614.097"/>
      <point x="970.265" y="708.947"/>
      <point x="970.256" y="838.593" type="curve" smooth="yes"/>
      <point x="970.247" y="986.417"/>
      <point x="860.618" y="1083.94"/>
      <point x="660.367" y="1083.94" type="curve" smooth="yes"/>
      <point x="295.771" y="1083.94"/>
      <point x="76.112" y="790.077"/>
      <point x="76.112" y="382.448" type="curve" smooth="yes"/>
      <point x="76.112" y="142.124"/>
      <point x="218.959" y="0"/>
    </contour>
    <contour>
      <point x="558.172" y="630.528" type="curve" smooth="yes"/>
      <point x="272.993" y="630.528" type="line"/>
      <point x="234.337" y="475.614" type="line"/>
      <point x="531.215" y="475.614" type="line" smooth="yes"/>
      <point x="671.308" y="475.614"/>
      <point x="727.029" y="438.263"/>
      <point x="727.029" y="357.786" type="curve" smooth="yes"/>
      <point x="727.029" y="222.872"/>
      <point x="627.588" y="163.558"/>
      <point x="464.157" y="163.558" type="curve" smooth="yes"/>
      <point x="339.119" y="163.558"/>
      <point x="259.934" y="230.926"/>
      <point x="259.959" y="373.762" type="curve" smooth="yes"/>
      <point x="259.988" y="711.23"/>
      <point x="417.788" y="925.702"/>
      <point x="651.437" y="925.702" type="curve" smooth="yes"/>
      <point x="738.366" y="925.702"/>
      <point x="785.474" y="892.395"/>
      <point x="785.474" y="815.342" type="curve" smooth="yes"/>
      <point x="785.474" y="701.823"/>
      <point x="679.585" y="630.528"/>
    </contour>
  </outline>
  <guideline angle="257.056" x="266" y="1206"/>
  <guideline angle="77.2245" x="243" y="535"/>
</glyph>
<glyph name="decyr" format="2">
  <advance width="1176"/>
  <unicode hex="0434"/>
  <anchor x="662.4" y="1192" name="top"/>
  <outline>
    <contour>
      <point x="494.485" y="-16.384" type="curve" smooth="yes"/>
      <point x="956.234" y="-16.384"/>
      <point x="1157.97" y="461.594"/>
      <point x="1157.97" y="859.968" type="curve" smooth="yes"/>
      <point x="1157.97" y="1051.12"/>
      <point x="1087.55" y="1226.36"/>
      <point x="965.949" y="1337.33" type="curve" smooth="yes"/>
      <point x="872.121" y="1422.96"/>
      <point x="745.243" y="1467.75"/>
      <point x="612.76" y="1468.09" type="curve" smooth="yes"/>
      <point x="556.535" y="1468.23"/>
      <point x="498.484" y="1462.9"/>
      <point x="439.916" y="1447.45" type="curve"/>
      <point x="401.299" y="1293.82" type="line"/>
      <point x="454.929" y="1321.96"/>
      <point x="519.845" y="1327.05"/>
      <point x="580.921" y="1326.63" type="curve" smooth="yes"/>
      <point x="675.06" y="1326.02"/>
      <point x="764.809" y="1289.02"/>
      <point x="833.465" y="1236.91" type="curve" smooth="yes"/>
      <point x="914.136" y="1175.15"/>
      <point x="964.645" y="1074.06"/>
      <point x="966.523" y="976.019" type="curve"/>
      <point x="904.31" y="1058.82"/>
      <point x="785.766" y="1085.44"/>
      <point x="687.118" y="1085.44" type="curve" smooth="yes"/>
      <point x="331.53" y="1085.44"/>
      <point x="72.93" y="749.521"/>
      <point x="72.93" y="411.008" type="curve" smooth="yes"/>
      <point x="72.93" y="149.238"/>
      <point x="230.718" y="-16.384"/>
    </contour>
    <contour>
      <point x="502.318" y="151.347" type="curve" smooth="yes"/>
      <point x="339.351" y="151.347"/>
      <point x="260.859" y="255.816"/>
      <point x="260.859" y="411.674" type="curve" smooth="yes"/>
      <point x="260.859" y="658.743"/>
      <point x="435.756" y="939.405"/>
      <point x="706.011" y="939.405" type="curve" smooth="yes"/>
      <point x="858.332" y="939.405"/>
      <point x="943.88" y="836.229"/>
      <point x="943.88" y="688.518" type="curve" smooth="yes"/>
      <point x="943.88" y="448.696"/>
      <point x="767.517" y="151.347"/>
    </contour>
  </outline>
</glyph>
<glyph name="emcyr" format="2">
  <advance width="1508"/>
  <unicode hex="043C"/>
  <outline>
    <contour>
      <point x="1216.42" y="0" type="line"/>
      <point x="1462.47" y="1063.63" type="line"/>
      <point x="1206.34" y="1063.63" type="line"/>
      <point x="683.381" y="227.84" type="line"/>
      <point x="545.371" y="1063.94" type="line"/>
      <point x="294.798" y="1063.94" type="line"/>
      <point x="51.086" y="0" type="line"/>
      <point x="230.952" y="0" type="line"/>
      <point x="423.746" y="824.627" type="line"/>
      <point x="565.288" y="0" type="line"/>
      <point x="708.059" y="0" type="line"/>
      <point x="1228.17" y="827.264" type="line"/>
      <point x="1035.97" y="0" type="line"/>
    </contour>
  </outline>
</glyph>
<glyph name="encyr" format="2">
  <advance width="1197"/>
  <unicode hex="043D"/>
  <outline>
    <contour>
      <point x="927.25" y="0" type="line"/>
      <point x="1171.82" y="1064" type="line"/>
      <point x="981" y="1064" type="line"/>
      <point x="888.825" y="657.55" type="line"/>
      <point x="377.95" y="657.55" type="line"/>
      <point x="471.85" y="1064" type="line"/>
      <point x="279.875" y="1064" type="line"/>
      <point x="36.3" y="0" type="line"/>
      <point x="227.275" y="0" type="line"/>
      <point x="345.45" y="517.55" type="line"/>
      <point x="856.325" y="517.55" type="line"/>
      <point x="737.15" y="0" type="line"/>
    </contour>
  </outline>
  <guideline angle="76.917" x="338" y="638"/>
  <guideline angle="257.3" x="998" y="1064"/>
</glyph>
<glyph name="hardcyr" format="2">
  <advance width="1219"/>
  <unicode hex="044A"/>
  <outline>
    <contour>
      <point x="483.121" y="1063.94" type="line"/>
      <point x="126.901" y="1063.94" type="line"/>
      <point x="94.491" y="924.672" type="line"/>
      <point x="452.529" y="924.672" type="line"/>
    </contour>
    <contour>
      <point x="626.353" y="-20.48" type="curve" smooth="yes"/>
      <point x="942.271" y="-20.48"/>
      <point x="1196.52" y="210.994"/>
      <point x="1196.52" y="530.816" type="curve" smooth="yes"/>
      <point x="1196.52" y="739.046"/>
      <point x="1050.78" y="863.744"/>
      <point x="816.689" y="863.744" type="curve" smooth="yes"/>
      <point x="701.438" y="863.744"/>
      <point x="600.292" y="820.198"/>
      <point x="516.35" y="737.971" type="curve"/>
      <point x="603.438" y="1063.94" type="line"/>
      <point x="422.83" y="1063.94" type="line"/>
      <point x="299.62" y="545.715" type="line" smooth="yes"/>
      <point x="265.001" y="401.389"/>
      <point x="260.58" y="361.259"/>
      <point x="260.58" y="304.998" type="curve" smooth="yes"/>
      <point x="260.58" y="96.102"/>
      <point x="403.377" y="-20.48"/>
    </contour>
    <contour>
      <point x="638.718" y="137.446" type="curve" smooth="yes"/>
      <point x="504.497" y="137.446"/>
      <point x="435.07" y="208.614"/>
      <point x="435.07" y="330.65" type="curve" smooth="yes"/>
      <point x="435.07" y="526.156"/>
      <point x="591.199" y="704.794"/>
      <point x="792.446" y="704.794" type="curve" smooth="yes"/>
      <point x="915.797" y="704.794"/>
      <point x="996.401" y="635.039"/>
      <point x="996.401" y="508.698" type="curve" smooth="yes"/>
      <point x="996.401" y="315.397"/>
      <point x="839.392" y="137.446"/>
    </contour>
  </outline>
</glyph>
<glyph name="yuslittlecyr" format="2">
  <advance width="1011"/>
  <unicode hex="0467"/>
  <outline>
    <contour>
      <point x="692.984" y="391.597" type="line"/>
      <point x="291.982" y="391.597" type="line"/>
      <point x="213.134" y="259.146" type="line"/>
      <point x="709.701" y="259.146" type="line"/>
    </contour>
    <contour>
      <point x="377.674" y="280.581" type="line"/>
      <point x="314.843" y="0" type="line"/>
      <point x="467.106" y="0" type="line"/>
      <point x="530.033" y="280.539" type="line"/>
    </contour>
    <contour>
      <point x="874.051" y="0" type="line"/>
      <point x="712.285" y="1063.94" type="line"/>
      <point x="548.906" y="1063.94" type="line"/>
      <point x="-104.099" y="0" type="line"/>
      <point x="102.109" y="0" type="line"/>
      <point x="594.742" y="847.646" type="line"/>
      <point x="575.863" y="851.622" type="line"/>
      <point x="671.043" y="0" type="line"/>
    </contour>
  </outline>
</glyph>
<glyph name="yusbigcyr" format="2">
  <advance width="1243"/>
  <unicode hex="046B"/>
  <outline>
    <contour>
      <point x="1107.23" y="0" type="line"/>
      <point x="1038.06" y="362.325" type="line" smooth="yes"/>
      <point x="1009.74" y="506.469"/>
      <point x="935.776" y="563.967"/>
      <point x="829.187" y="563.967" type="curve"/>
      <point x="1173.67" y="924.083" type="line"/>
      <point x="1205.05" y="1063.94" type="line"/>
      <point x="294.846" y="1063.94" type="line"/>
      <point x="265.073" y="923.494" type="line"/>
      <point x="464.158" y="563.967" type="line"/>
      <point x="314.751" y="563.967"/>
      <point x="201.401" y="519.552"/>
      <point x="129.825" y="394.772" type="curve" smooth="yes"/>
      <point x="-95.095" y="0" type="line"/>
      <point x="128.47" y="0" type="line"/>
      <point x="290.69" y="287.331" type="line" smooth="yes"/>
      <point x="340.169" y="374.86"/>
      <point x="413.726" y="422.223"/>
      <point x="474.916" y="422.223" type="curve" smooth="yes"/>
      <point x="506.113" y="422.223" type="line"/>
      <point x="408.586" y="0" type="line"/>
      <point x="606.68" y="0" type="line"/>
      <point x="705.264" y="424.595" type="line"/>
      <point x="731.969" y="424.611" type="line" smooth="yes"/>
      <point x="798.401" y="424.653"/>
      <point x="843.383" y="384.813"/>
      <point x="854.34" y="300.073" type="curve" smooth="yes"/>
      <point x="891.861" y="0" type="line"/>
    </contour>
    <contour>
      <point x="687.76" y="545.868" type="line"/>
      <point x="498.084" y="924.672" type="line"/>
      <point x="938.583" y="924.672" type="line"/>
      <point x="596.748" y="545.868" type="line"/>
    </contour>
  </outline>
  <guideline angle="256.986" x="508" y="424"/>
  <guideline angle="76.9856" x="550" y="0"/>
</glyph>
<glyph name="titlocombcyr" format="2">
  <unicode hex="0483"/>
  <outline>
    <contour>
      <point x="-557.44" y="1595.42" type="line"/>
      <point x="-523.034" y="1742.57" type="line"/>
      <point x="153.421" y="1742.57" type="line"/>
      <point x="219.725" y="2027.03" type="line"/>
      <point x="50.278" y="2027.03" type="line"/>
      <point x="18.662" y="1890.79" type="line"/>
      <point x="-650.47" y="1890.79" type="line"/>
      <point x="-718.541" y="1595.42" type="line"/>
    </contour>
  </outline>
</glyph>
<glyph name="entailcyr" format="2">
  <advance width="1238"/>
  <unicode hex="04A3"/>
  <outline>
    <contour>
      <point x="927.25" y="0" type="line"/>
      <point x="1171.82" y="1064" type="line"/>
      <point x="981" y="1064" type="line"/>
      <point x="888.825" y="657.55" type="line"/>
      <point x="377.95" y="657.55" type="line"/>
      <point x="471.85" y="1064" type="line"/>
      <point x="279.875" y="1064" type="line"/>
      <point x="36.3" y="0" type="line"/>
      <point x="227.275" y="0" type="line"/>
      <point x="345.45" y="517.55" type="line"/>
      <point x="856.325" y="517.55" type="line"/>
      <point x="737.15" y="0" type="line"/>
    </contour>
    <contour>
      <point x="1009.82" y="-307.349" type="line"/>
      <point x="1118.45" y="165.445" type="line"/>
      <point x="892.01" y="165.445" type="line"/>
      <point x="850.836" y="0" type="line"/>
      <point x="904.421" y="0" type="line"/>
      <point x="832.796" y="-307.349" type="line"/>
    </contour>
  </outline>
</glyph>
<glyph name="Shhacyr" format="2">
  <advance width="1365"/>
  <unicode hex="04BA"/>
  <outline>
    <contour>
      <point x="1131.01" y="0.87" type="line"/>
      <point x="1215.77" y="367.36" type="line" smooth="yes"/>
      <point x="1236.71" y="455.68"/>
      <point x="1252.55" y="541.082"/>
      <point x="1252.55" y="627.098" type="curve" smooth="yes"/>
      <point x="1252.55" y="881.075"/>
      <point x="1116.13" y="1025.31"/>
      <point x="835.862" y="1025.31" type="curve" smooth="yes"/>
      <point x="699.831" y="1025.31"/>
      <point x="574.671" y="987.155"/>
      <point x="463.456" y="898.626" type="curve"/>
      <point x="423.45" y="681.941" type="line"/>
      <point x="525.907" y="788.821"/>
      <point x="674.511" y="851.336"/>
      <point x="820.016" y="851.336" type="curve" smooth="yes"/>
      <point x="988.49" y="851.336"/>
      <point x="1062.83" y="776.888"/>
      <point x="1062.83" y="618.451" type="curve" smooth="yes"/>
      <point x="1062.83" y="543.474"/>
      <point x="1046.84" y="463.466"/>
      <point x="1026.33" y="376.813" type="curve" smooth="yes"/>
      <point x="939.798" y="0.870008" type="line"/>
    </contour>
    <contour>
      <point x="283.15" y="0" type="line"/>
      <point x="616.15" y="1448" type="line"/>
      <point x="424.725" y="1448" type="line"/>
      <point x="92.15" y="0" type="line"/>
    </contour>
  </outline>
</glyph>
<glyph name="palochkacyr" format="2">
  <advance width="551"/>
  <unicode hex="04CF"/>
  <anchor x="450.875" y="1620" name="top"/>
  <anchor x="189.4" y="-120" name="bottom"/>
  <anchor x="667.75" y="774" name="center"/>
  <outline>
    <contour>
      <point x="211.181" y="0" type="line"/>
      <point x="556.249" y="1447.94" type="line"/>
      <point x="364.956" y="1447.94" type="line"/>
      <point x="22.677" y="0" type="line"/>
    </contour>
  </outline>
  <guideline angle="90" name="vertical" x="436" y="0"/>
  <guideline angle="256.795" x="375" y="1448"/>
  <guideline angle="76.5684" x="198" y="129"/>
</glyph>
<glyph name="quoteright" format="2">
  <advance width="580"/>
  <unicode hex="2019"/>
  <outline>
    <contour>
      <point x="347.979" y="927.77" type="line"/>
      <point x="704.562" y="1446.91" type="line"/>
      <point x="477.31" y="1446.91" type="line"/>
      <point x="228.632" y="927.77" type="line"/>
    </contour>
  </outline>
</glyph>
<glyph name="quotedblbase" format="2">
  <advance width="906"/>
  <unicode hex="201E"/>
  <outline>
    <contour>
      <point x="77.669" y="-230.989" type="line"/>
      <point x="427.467" y="268.57" type="line"/>
      <point x="206.846" y="268.57" type="line"/>
      <point x="-35.79" y="-230.989" type="line"/>
    </contour>
    <contour>
      <point x="411.646" y="-230.989" type="line"/>
      <point x="761.88" y="268.57" type="line"/>
      <point x="540.824" y="268.57" type="line"/>
      <point x="298.187" y="-230.989" type="line"/>
    </contour>
  </outline>
</glyph>
<glyph name="daggerdbl" format="2">
  <advance width="910"/>
  <unicode hex="2021"/>
  <outline>
    <contour>
      <point x="377.395" y="-210.509" type="line"/>
      <point x="473.395" y="207.002" type="line"/>
      <point x="700.723" y="207.002" type="line"/>
      <point x="741.171" y="383.258" type="line"/>
      <point x="514.278" y="383.258" type="line"/>
      <point x="622.899" y="854.912" type="line"/>
      <point x="849.203" y="854.912" type="line"/>
      <point x="889.651" y="1028.22" type="line"/>
      <point x="663.347" y="1028.22" type="line"/>
      <point x="759.347" y="1446.91" type="line"/>
      <point x="584.858" y="1446.91" type="line"/>
      <point x="488.269" y="1028.22" type="line"/>
      <point x="261.376" y="1028.22" type="line"/>
      <point x="221.082" y="854.912" type="line"/>
      <point x="447.821" y="854.912" type="line"/>
      <point x="339.354" y="383.258" type="line"/>
      <point x="112.461" y="383.258" type="line"/>
      <point x="72.013" y="207.002" type="line"/>
      <point x="298.317" y="207.002" type="line"/>
      <point x="202.317" y="-210.509" type="line"/>
    </contour>
  </outline>
</glyph>
<glyph name="guilsinglright" format="2">
  <advance width="622"/>
  <unicode hex="203A"/>
  <outline>
    <contour>
      <point x="91.24" y="182.118" type="line"/>
      <point x="562.126" y="523.418" type="line"/>
      <point x="244.635" y="863.821" type="line"/>
      <point x="208.258" y="684.851" type="line"/>
      <point x="362.779" y="522.829" type="line"/>
      <point x="128.488" y="360.499" type="line"/>
    </contour>
  </outline>
</glyph>
<glyph name="zero.superior" format="2">
  <advance width="856"/>
  <unicode hex="2070"/>
  <outline>
    <contour>
      <point x="427.383" y="478.387" type="curve" smooth="yes"/>
      <point x="737.793" y="478.365"/>
      <point x="928.682" y="866.809"/>
      <point x="928.682" y="1140.53" type="curve" smooth="yes"/>
      <point x="928.682" y="1326.33"/>
      <point x="845.845" y="1488.29"/>
      <point x="642.142" y="1488.31" type="curve" smooth="yes"/>
      <point x="322.844" y="1488.33"/>
      <point x="138.172" y="1097.89"/>
      <point x="138.206" y="819.738" type="curve" smooth="yes"/>
      <point x="138.23" y="628.155"/>
      <point x="220.69" y="478.402"/>
    </contour>
    <contour>
      <point x="440.798" y="609.715" type="curve" smooth="yes"/>
      <point x="313.105" y="609.715"/>
      <point x="274.703" y="715.622"/>
      <point x="274.654" y="829.773" type="curve" smooth="yes"/>
      <point x="274.574" y="1018.04"/>
      <point x="399.832" y="1352.88"/>
      <point x="622.148" y="1352.88" type="curve" smooth="yes"/>
      <point x="745.284" y="1352.88"/>
      <point x="783.024" y="1246.23"/>
      <point x="783.018" y="1136.05" type="curve" smooth="yes"/>
      <point x="783.01" y="954.345"/>
      <point x="662.174" y="609.715"/>
    </contour>
  </outline>
</glyph>
<glyph name="four.superior" format="2">
  <advance width="856"/>
  <unicode hex="2074"/>
  <outline>
    <contour>
      <point x="629.372" y="498.842" type="line"/>
      <point x="686.614" y="744.627" type="line"/>
      <point x="840.803" y="744.627" type="line"/>
      <point x="866.633" y="869.658" type="line"/>
      <point x="716.233" y="869.658" type="line"/>
      <point x="856.726" y="1465.8" type="line"/>
      <point x="735.689" y="1465.8" type="line"/>
      <point x="117.193" y="825.907" type="line"/>
      <point x="100.988" y="744.627" type="line"/>
      <point x="547.683" y="744.627" type="line"/>
      <point x="490.441" y="498.842" type="line"/>
    </contour>
    <contour>
      <point x="577.302" y="869.658" type="line"/>
      <point x="289.148" y="869.658" type="line"/>
      <point x="671.51" y="1270.35" type="line"/>
    </contour>
  </outline>
</glyph>
<glyph name="zero.inferior" format="2">
  <advance width="856"/>
  <unicode hex="2080"/>
  <outline>
    <contour>
      <point x="209.883" y="-509.021" type="curve" smooth="yes"/>
      <point x="519.948" y="-509.021"/>
      <point x="711.182" y="-119.383"/>
      <point x="711.182" y="153.123" type="curve" smooth="yes"/>
      <point x="711.182" y="338.752"/>
      <point x="627.978" y="500.899"/>
      <point x="424.642" y="500.899" type="curve" smooth="yes"/>
      <point x="106.289" y="500.899"/>
      <point x="-79.328" y="109.108"/>
      <point x="-79.294" y="-167.67" type="curve" smooth="yes"/>
      <point x="-79.27" y="-358.267"/>
      <point x="3.41499" y="-509.021"/>
    </contour>
    <contour>
      <point x="223.298" y="-377.693" type="curve" smooth="yes"/>
      <point x="96.194" y="-377.693"/>
      <point x="57.203" y="-271.786"/>
      <point x="57.154" y="-157.635" type="curve" smooth="yes"/>
      <point x="57.074" y="29.586"/>
      <point x="181.64" y="365.475"/>
      <point x="404.648" y="365.475" type="curve" smooth="yes"/>
      <point x="527.784" y="365.475"/>
      <point x="565.524" y="258.826"/>
      <point x="565.518" y="148.643" type="curve" smooth="yes"/>
      <point x="565.51" y="-31.944"/>
      <point x="442.681" y="-377.693"/>
    </contour>
  </outline>
</glyph>
<glyph name="eight.inferior" format="2">
  <advance width="880"/>
  <unicode hex="2088"/>
  <outline>
    <contour>
      <point x="208.16" y="-509.021" type="curve" smooth="yes"/>
      <point x="414.718" y="-508.942"/>
      <point x="640.288" y="-387.291"/>
      <point x="640.288" y="-157.098" type="curve" smooth="yes"/>
      <point x="640.288" y="-73.514"/>
      <point x="598.842" y="-8.413"/>
      <point x="522.144" y="29.168" type="curve"/>
      <point x="629.408" y="84.848"/>
      <point x="700.141" y="182.614"/>
      <point x="700.141" y="296.355" type="curve" smooth="yes"/>
      <point x="700.141" y="428.554"/>
      <point x="579.667" y="498.851"/>
      <point x="444.525" y="498.851" type="curve" smooth="yes"/>
      <point x="268.348" y="498.851"/>
      <point x="72.634" y="384.207"/>
      <point x="72.634" y="190.243" type="curve" smooth="yes"/>
      <point x="72.634" y="127.165"/>
      <point x="99.744" y="72.995"/>
      <point x="149.254" y="39.357" type="curve"/>
      <point x="3.41101" y="-23.338"/>
      <point x="-95.486" y="-136.541"/>
      <point x="-95.43" y="-282.819" type="curve" smooth="yes"/>
      <point x="-95.347" y="-450.3"/>
      <point x="65.974" y="-509.078"/>
    </contour>
    <contour>
      <point x="343.738" y="81.648" type="curve" smooth="yes"/>
      <point x="262.714" y="81.648"/>
      <point x="208.372" y="116.515"/>
      <point x="208.365" y="186.864" type="curve" smooth="yes"/>
      <point x="208.351" y="297.447"/>
      <point x="328.84" y="372.054"/>
      <point x="429.779" y="372.054" type="curve" smooth="yes"/>
      <point x="506.886" y="372.054"/>
      <point x="566.161" y="339.082"/>
      <point x="566.176" y="269.322" type="curve" smooth="yes"/>
      <point x="566.205" y="157.619"/>
      <point x="446.24" y="81.648"/>
    </contour>
    <contour>
      <point x="223.187" y="-386.32" type="curve" smooth="yes"/>
      <point x="144.203" y="-386.286"/>
      <point x="44.09" y="-353.619"/>
      <point x="44.09" y="-259.6" type="curve" smooth="yes"/>
      <point x="44.09" y="-114.949"/>
      <point x="197.827" y="-31.248"/>
      <point x="326.79" y="-31.248" type="curve" smooth="yes"/>
      <point x="420.819" y="-31.248"/>
      <point x="503.686" y="-72.413"/>
      <point x="503.686" y="-157.251" type="curve" smooth="yes"/>
      <point x="503.686" y="-298.69"/>
      <point x="351.223" y="-386.377"/>
    </contour>
  </outline>
</glyph>
<glyph name="nine.inferior" format="2">
  <advance width="869"/>
  <unicode hex="2089"/>
  <outline>
    <contour>
      <point x="211.293" y="-488.566" type="line"/>
      <point x="615.137" y="-18.246" type="line" smooth="yes"/>
      <point x="675.05" y="50.977"/>
      <point x="713.411" y="148.31"/>
      <point x="713.411" y="234.326" type="curve" smooth="yes"/>
      <point x="713.411" y="382.218"/>
      <point x="600.208" y="492.733"/>
      <point x="437.11" y="492.733" type="curve" smooth="yes"/>
      <point x="228.993" y="492.733"/>
      <point x="13.942" y="308.855"/>
      <point x="13.942" y="94.448" type="curve" smooth="yes"/>
      <point x="13.942" y="-56.816"/>
      <point x="119.679" y="-151.648"/>
      <point x="255.997" y="-151.648" type="curve" smooth="yes"/>
      <point x="297.546" y="-151.648"/>
      <point x="330.081" y="-146.076"/>
      <point x="362.19" y="-135.684" type="curve"/>
      <point x="364.449" y="-138.974" type="line"/>
      <point x="57.232" y="-488.566" type="line"/>
    </contour>
    <contour>
      <point x="303.177" y="-36.957" type="curve" smooth="yes"/>
      <point x="213.861" y="-36.957"/>
      <point x="149.955" y="13.65"/>
      <point x="149.955" y="108.042" type="curve" smooth="yes"/>
      <point x="149.955" y="240.147"/>
      <point x="284.825" y="362.992"/>
      <point x="416.221" y="363.018" type="curve" smooth="yes"/>
      <point x="503.931" y="363.033"/>
      <point x="576.973" y="304.597"/>
      <point x="576.963" y="213.309" type="curve" smooth="yes"/>
      <point x="576.949" y="79.229"/>
      <point x="450.617" y="-36.957"/>
    </contour>
  </outline>
</glyph>
<glyph name="austral" format="2">
  <advance width="1229"/>
  <unicode hex="20B3"/>
  <outline>
    <contour>
      <point x="1001.8" y="0" type="line"/>
      <point x="784.429" y="1447.94" type="line"/>
      <point x="639.481" y="1447.94" type="line"/>
      <point x="-248.327" y="0" type="line"/>
      <point x="-37.562" y="0" type="line"/>
      <point x="653.945" y="1167.41" type="line"/>
      <point x="800.096" y="0" type="line"/>
    </contour>
    <contour>
      <point x="-48.595" y="788.889" type="line"/>
      <point x="-76.346" y="660.951" type="line"/>
      <point x="1139.3" y="660.951" type="line"/>
      <point x="1167.05" y="788.889" type="line"/>
    </contour>
    <contour>
      <point x="-126.829" y="442.317" type="line"/>
      <point x="-157.651" y="314.368" type="line"/>
      <point x="1057.4" y="314.368" type="line"/>
      <point x="1088.22" y="442.317" type="line"/>
    </contour>
  </outline>
</glyph>
<glyph name="hryvnia" format="2">
  <advance width="1229"/>
  <unicode hex="20B4"/>
  <outline>
    <contour>
      <point x="453.644" y="-16.384" type="curve" smooth="yes"/>
      <point x="716.879" y="-16.384"/>
      <point x="951.401" y="126.992"/>
      <point x="1049.2" y="373.018" type="curve"/>
      <point x="878.783" y="439.603" type="line"/>
      <point x="817.257" y="264.202"/>
      <point x="652.74" y="157.133"/>
      <point x="468.645" y="157.133" type="curve" smooth="yes"/>
      <point x="345.612" y="157.133"/>
      <point x="251.042" y="200.269"/>
      <point x="251.045" y="322.893" type="curve" smooth="yes"/>
      <point x="251.048" y="420.074"/>
      <point x="294.975" y="506.286"/>
      <point x="367.577" y="568.96" type="curve"/>
      <point x="957.324" y="568.96" type="line"/>
      <point x="983.461" y="680.678" type="line"/>
      <point x="595.007" y="680.678" type="line"/>
      <point x="827.421" y="767.867"/>
      <point x="1124.9" y="859.24"/>
      <point x="1124.9" y="1162.47" type="curve" smooth="yes"/>
      <point x="1124.9" y="1364.23"/>
      <point x="971.329" y="1468.42"/>
      <point x="783.705" y="1468.42" type="curve" smooth="yes"/>
      <point x="603.916" y="1468.42"/>
      <point x="450.572" y="1393.95"/>
      <point x="326.156" y="1242.96" type="curve"/>
      <point x="458.047" y="1130.42" type="line"/>
      <point x="529.643" y="1228.92"/>
      <point x="647.098" y="1301.76"/>
      <point x="771.033" y="1301.76" type="curve" smooth="yes"/>
      <point x="861.938" y="1301.76"/>
      <point x="941.196" y="1252.25"/>
      <point x="941.196" y="1162.57" type="curve" smooth="yes"/>
      <point x="941.196" y="1089.77"/>
      <point x="897.138" y="1022.9"/>
      <point x="837.874" y="974.694" type="curve"/>
      <point x="299.276" y="974.694" type="line"/>
      <point x="274.597" y="862.976" type="line"/>
      <point x="623.679" y="862.976" type="line"/>
      <point x="551.129" y="829.926"/>
      <point x="481.449" y="807.695"/>
      <point x="421.9" y="781.005" type="curve" smooth="yes"/>
      <point x="225.088" y="693.78"/>
      <point x="64.095" y="554.708"/>
      <point x="64.14" y="322.765" type="curve" smooth="yes"/>
      <point x="64.194" y="93.058"/>
      <point x="243.256" y="-16.384"/>
    </contour>
  </outline>
</glyph>
<glyph name="ruble" format="2">
  <advance width="1229"/>
  <unicode hex="20BD"/>
  <outline>
    <contour>
      <point x="33.059" y="491.802" type="line"/>
      <point x="-2.423" y="336" type="line"/>
      <point x="744.585" y="336" type="line"/>
      <point x="779.478" y="491.802" type="line"/>
    </contour>
    <contour>
      <point x="317.347" y="810.368" type="line"/>
      <point x="106.121" y="810.368" type="line"/>
      <point x="68.899" y="645.862" type="line"/>
      <point x="280.124" y="645.862" type="line"/>
    </contour>
    <contour>
      <point x="289.75" y="0" type="line"/>
      <point x="436.668" y="637.158" type="line"/>
      <point x="633.25" y="637.158" type="line" smooth="yes"/>
      <point x="942.498" y="637.158"/>
      <point x="1245.47" y="779.93"/>
      <point x="1245.47" y="1129.91" type="curve" smooth="yes"/>
      <point x="1245.47" y="1359.03"/>
      <point x="1046.18" y="1446.91"/>
      <point x="846.729" y="1446.91" type="curve" smooth="yes"/>
      <point x="433.238" y="1446.91" type="line"/>
      <point x="99.8494" y="0" type="line"/>
    </contour>
    <contour>
      <point x="701.142" y="810.368" type="curve" smooth="yes"/>
      <point x="475.631" y="810.368" type="line"/>
      <point x="583.74" y="1273.7" type="line"/>
      <point x="822.23" y="1273.7" type="line" smooth="yes"/>
      <point x="953.839" y="1273.7"/>
      <point x="1058.21" y="1234.94"/>
      <point x="1058.21" y="1114.88" type="curve" smooth="yes"/>
      <point x="1058.21" y="910.925"/>
      <point x="887.433" y="810.368"/>
    </contour>
  </outline>
</glyph>
<glyph name="partialdiff" format="2">
  <advance width="1340"/>
  <unicode hex="2202"/>
  <outline>
    <contour>
      <point x="471.12" y="-11.699" type="curve"/>
      <point x="989.14" y="-11.509"/>
      <point x="1264.19" y="599.983"/>
      <point x="1264.21" y="1047.53" type="curve" smooth="yes"/>
      <point x="1264.22" y="1296.12"/>
      <point x="1160.35" y="1462.55"/>
      <point x="894.109" y="1462.55" type="curve" smooth="yes"/>
      <point x="694.121" y="1462.55"/>
      <point x="527.485" y="1371.64"/>
      <point x="420.458" y="1202.13" type="curve"/>
      <point x="568.067" y="1143.14" type="line"/>
      <point x="638.963" y="1251.46"/>
      <point x="738.798" y="1316.35"/>
      <point x="870.941" y="1316.35" type="curve" smooth="yes"/>
      <point x="1022.83" y="1316.35"/>
      <point x="1095.89" y="1228.7"/>
      <point x="1095.89" y="1074.02" type="curve" smooth="yes"/>
      <point x="1095.89" y="1027.89"/>
      <point x="1089.74" y="979.149"/>
      <point x="1078.05" y="927.053" type="curve"/>
      <point x="1009.28" y="1007.95"/>
      <point x="911.389" y="1043.11"/>
      <point x="810.55" y="1043.1" type="curve" smooth="yes"/>
      <point x="443.507" y="1043.05"/>
      <point x="112.182" y="691.1"/>
      <point x="112.182" y="329.037" type="curve" smooth="yes"/>
      <point x="112.182" y="119.859"/>
      <point x="243.843" y="-11.783"/>
    </contour>
    <contour>
      <point x="495.184" y="148.736" type="curve" smooth="yes"/>
      <point x="369.13" y="148.736"/>
      <point x="289.898" y="216.115"/>
      <point x="289.898" y="344.909" type="curve" smooth="yes"/>
      <point x="289.898" y="599.121"/>
      <point x="542.355" y="886.426"/>
      <point x="804.15" y="886.426" type="curve" smooth="yes"/>
      <point x="940.624" y="886.426"/>
      <point x="1008.86" y="819.866"/>
      <point x="1008.85" y="698.47" type="curve" smooth="yes"/>
      <point x="1008.84" y="438.607"/>
      <point x="761.685" y="148.736"/>
    </contour>
  </outline>
</glyph>
<glyph name="increment" format="2">
  <advance width="1348"/>
  <unicode hex="2206"/>
  <outline>
    <contour>
      <point x="1131.71" y="0" type="line"/>
      <point x="894.01" y="1480.86" type="line"/>
      <point x="-22.0349" y="0" type="line"/>
    </contour>
    <contour>
      <point x="940.602" y="158.106" type="line"/>
      <point x="250.835" y="158.106" type="line"/>
      <point x="806.662" y="1065.11" type="line"/>
    </contour>
  </outline>
</glyph>
<glyph name="product" format="2">
  <advance width="1380"/>
  <unicode hex="220F"/>
  <outline>
    <contour>
      <point x="994.28" y="0" type="line"/>
      <point x="1291.75" y="1288.81" type="line"/>
      <point x="1375.72" y="1288.81" type="line"/>
      <point x="1412.07" y="1446.91" type="line"/>
      <point x="401.845" y="1446.91" type="line"/>
      <point x="364.469" y="1288.81" type="line"/>
      <point x="448.437" y="1288.81" type="line"/>
      <point x="151.989" y="0" type="line"/>
      <point x="310.094" y="0" type="line"/>
      <point x="607.131" y="1288.81" type="line"/>
      <point x="1133.06" y="1288.81" type="line"/>
      <point x="836.174" y="0" type="line"/>
    </contour>
  </outline>
</glyph>
<glyph name="summation" format="2">
  <advance width="1312"/>
  <unicode hex="2211"/>
  <outline>
    <contour>
      <point x="1058.23" y="0" type="line"/>
      <point x="1093.99" y="158.106" type="line"/>
      <point x="326.224" y="158.106" type="line"/>
      <point x="986.499" y="725.146" type="line"/>
      <point x="583.402" y="1288.81" type="line"/>
      <point x="1355.27" y="1288.81" type="line"/>
      <point x="1391.03" y="1446.91" type="line"/>
      <point x="334.134" y="1446.91" type="line"/>
      <point x="318.826" y="1369.57" type="line"/>
      <point x="757.405" y="723.968" type="line"/>
      <point x="16.7971" y="77.3379" type="line"/>
      <point x="0.899057" y="0" type="line"/>
    </contour>
  </outline>
</glyph>
<glyph name="radical" format="2">
  <advance width="1251"/>
  <unicode hex="221A"/>
  <outline>
    <contour>
      <point x="365.805" y="-198.349" type="line"/>
      <point x="1358.09" y="1397.96" type="line"/>
      <point x="1218.21" y="1453" type="line"/>
      <point x="461.702" y="212.352" type="line"/>
      <point x="419.104" y="737.562" type="line"/>
      <point x="153.581" y="737.562" type="line"/>
      <point x="116.205" y="580.48" type="line"/>
      <point x="273.568" y="580.48" type="line"/>
    </contour>
  </outline>
</glyph>
<glyph name="notequal" format="2">
  <advance width="1217"/>
  <unicode hex="2260"/>
  <outline>
    <contour>
      <point x="309.176" y="0" type="line"/>
      <point x="541.624" y="431.642" type="line"/>
      <point x="1000.48" y="431.642" type="line"/>
      <point x="1000.48" y="588.544" type="line"/>
      <point x="626.795" y="588.544" type="line"/>
      <point x="733.701" y="786.534" type="line"/>
      <point x="1000.48" y="786.534" type="line"/>
      <point x="1000.48" y="943.437" type="line"/>
      <point x="816.67" y="943.437" type="line"/>
      <point x="1088.77" y="1446.91" type="line"/>
      <point x="914.795" y="1446.91" type="line"/>
      <point x="642.693" y="943.437" type="line"/>
      <point x="205.624" y="943.437" type="line"/>
      <point x="205.624" y="786.534" type="line"/>
      <point x="557.957" y="786.534" type="line"/>
      <point x="451.64" y="588.544" type="line"/>
      <point x="205.624" y="588.544" type="line"/>
      <point x="205.624" y="431.642" type="line"/>
      <point x="368.235" y="431.642" type="line"/>
      <point x="134.021" y="0" type="line"/>
    </contour>
  </outline>
</glyph>
<glyph name="greaterequal" format="2">
  <advance width="1364"/>
  <unicode hex="2265"/>
  <outline>
    <contour>
      <point x="246.813" y="133.555" type="line"/>
      <point x="1193.04" y="661.734" type="line"/>
      <point x="247.402" y="1189.17" type="line"/>
      <point x="167.094" y="1050.47" type="line"/>
      <point x="894.262" y="661.734" type="line"/>
      <point x="167.094" y="271.667" type="line"/>
    </contour>
    <contour>
      <point x="1251.87" y="-138.957" type="line"/>
      <point x="1251.87" y="-1.76601" type="line"/>
      <point x="151.53" y="-1.76601" type="line"/>
      <point x="151.53" y="-138.957" type="line"/>
    </contour>
  </outline>
</glyph>
<glyph name="eight.pnum" format="2">
  <advance width="1200"/>
  <outline>
    <contour>
      <point x="447.325" y="-20" type="curve" smooth="yes"/>
      <point x="751" y="-20"/>
      <point x="1047.55" y="166.625"/>
      <point x="1047.55" y="498.525" type="curve" smooth="yes"/>
      <point x="1047.55" y="624.45"/>
      <point x="991.775" y="717.05"/>
      <point x="881.95" y="774.025" type="curve"/>
      <point x="1033.32" y="860.4"/>
      <point x="1129.6" y="1001.57"/>
      <point x="1129.6" y="1170.15" type="curve" smooth="yes"/>
      <point x="1129.6" y="1372.6"/>
      <point x="957.575" y="1468"/>
      <point x="774.95" y="1468" type="curve" smooth="yes"/>
      <point x="517.85" y="1468"/>
      <point x="259.425" y="1288.4"/>
      <point x="259.425" y="1011.92" type="curve" smooth="yes"/>
      <point x="259.425" y="916.3"/>
      <point x="293.475" y="840.825"/>
      <point x="366.75" y="788.1" type="curve"/>
      <point x="172.9" y="700.575"/>
      <point x="25.525" y="533.25"/>
      <point x="25.525" y="312" type="curve" smooth="yes"/>
      <point x="25.525" y="75.375"/>
      <point x="237.275" y="-20"/>
    </contour>
    <contour>
      <point x="634.9" y="844.5" type="curve" smooth="yes"/>
      <point x="517.85" y="844.5"/>
      <point x="441.725" y="900.425"/>
      <point x="441.725" y="1008.9" type="curve" smooth="yes"/>
      <point x="441.725" y="1173.35"/>
      <point x="599.075" y="1299.42"/>
      <point x="756.85" y="1299.42" type="curve" smooth="yes"/>
      <point x="865.925" y="1299.42"/>
      <point x="949.3" y="1243.47"/>
      <point x="949.3" y="1137.87" type="curve" smooth="yes"/>
      <point x="949.3" y="974.425"/>
      <point x="793.1" y="844.5"/>
    </contour>
    <contour>
      <point x="466.275" y="143" type="curve" smooth="yes"/>
      <point x="331.8" y="143"/>
      <point x="213.1" y="205.8"/>
      <point x="213.1" y="340.975" type="curve" smooth="yes"/>
      <point x="213.1" y="554"/>
      <point x="412.875" y="694.225"/>
      <point x="612.375" y="694.225" type="curve" smooth="yes"/>
      <point x="733.375" y="694.225"/>
      <point x="863.25" y="637.2"/>
      <point x="863.25" y="498.375" type="curve" smooth="yes"/>
      <point x="863.25" y="288.925"/>
      <point x="663.475" y="143"/>
    </contour>
  </outline>
</glyph>
<glyph name="f_f" format="2">
  <advance width="1317"/>
  <outline>
    <contour>
      <point x="65.349" y="0" type="line"/>
      <point x="252.869" y="0" type="line"/>
      <point x="460.971" y="914.454" type="line"/>
      <point x="901.035" y="914.454" type="line"/>
      <point x="692.779" y="0" type="line"/>
      <point x="885.112" y="0" type="line"/>
      <point x="1093.96" y="914.454" type="line"/>
      <point x="1381.5" y="914.454" type="line"/>
      <point x="1416.95" y="1064.2" type="line"/>
      <point x="1130" y="1064.2" type="line"/>
      <point x="1169.99" y="1201.38" type="line" smooth="yes"/>
      <point x="1192.38" y="1279.69"/>
      <point x="1253.21" y="1314.46"/>
      <point x="1329.55" y="1314.46" type="curve" smooth="yes"/>
      <point x="1364.7" y="1314.46"/>
      <point x="1399.57" y="1307.29"/>
      <point x="1431.21" y="1292.36" type="curve"/>
      <point x="1515.49" y="1426.46" type="line"/>
      <point x="1457.02" y="1454.23"/>
      <point x="1398.67" y="1468.42"/>
      <point x="1339.87" y="1468.42" type="curve" smooth="yes"/>
      <point x="1235.91" y="1468.42"/>
      <point x="1143.8" y="1437.15"/>
      <point x="1077.62" y="1372.8" type="curve"/>
      <point x="997.112" y="1441.2"/>
      <point x="913.195" y="1468.42"/>
      <point x="797.611" y="1468.42" type="curve" smooth="yes"/>
      <point x="599.796" y="1468.42"/>
      <point x="399.388" y="1377.76"/>
      <point x="341.854" y="1173.3" type="curve" smooth="yes"/>
      <point x="311.109" y="1064.2" type="line"/>
      <point x="150.725" y="1064.2" type="line"/>
      <point x="115.115" y="914.454" type="line"/>
      <point x="273.605" y="914.454" type="line"/>
    </contour>
    <contour>
      <point x="497.016" y="1064.64" type="line"/>
      <point x="520.184" y="1146.34" type="line" smooth="yes"/>
      <point x="549.989" y="1251.42"/>
      <point x="666.872" y="1308.21"/>
      <point x="796.869" y="1308.21" type="curve" smooth="yes"/>
      <point x="871.006" y="1308.21"/>
      <point x="935.784" y="1289.99"/>
      <point x="988.613" y="1239.73" type="curve"/>
      <point x="938.386" y="1064.64" type="line"/>
    </contour>
  </outline>
</glyph>
<glyph name="f_f_l" format="2">
  <advance width="1699"/>
  <outline>
    <contour>
      <point x="44.349" y="0" type="line"/>
      <point x="233.635" y="0" type="line"/>
      <point x="441.738" y="914.426" type="line"/>
      <point x="872.074" y="914.426" type="line"/>
      <point x="664.406" y="0" type="line"/>
      <point x="852.362" y="0" type="line"/>
      <point x="1060.03" y="914.426" type="line"/>
      <point x="1239.77" y="914.426" type="line"/>
      <point x="1275.81" y="1064.11" type="line"/>
      <point x="1095.48" y="1064.11" type="line"/>
      <point x="1116.58" y="1140.86" type="line" smooth="yes"/>
      <point x="1147.4" y="1252.63"/>
      <point x="1277.88" y="1306.47"/>
      <point x="1385.3" y="1306.45" type="curve" smooth="yes"/>
      <point x="1436.87" y="1306.43"/>
      <point x="1508.58" y="1295.99"/>
      <point x="1540.46" y="1255.55" type="curve"/>
      <point x="1291.4" y="193.843" type="line" smooth="yes"/>
      <point x="1284.08" y="162.816"/>
      <point x="1278.64" y="133.094"/>
      <point x="1278.64" y="104.09" type="curve" smooth="yes"/>
      <point x="1278.62" y="11.639"/>
      <point x="1330.94" y="-20.48"/>
      <point x="1418.12" y="-20.48" type="curve" smooth="yes"/>
      <point x="1462.83" y="-20.48"/>
      <point x="1507.68" y="-13.51"/>
      <point x="1551.45" y="-2.63595" type="curve"/>
      <point x="1576.97" y="161.178" type="line"/>
      <point x="1551.98" y="152.09"/>
      <point x="1528.59" y="146.074"/>
      <point x="1506.62" y="146.074" type="curve" smooth="yes"/>
      <point x="1477.85" y="146.074"/>
      <point x="1465.09" y="153.268"/>
      <point x="1465.09" y="180.301" type="curve" smooth="yes"/>
      <point x="1465.09" y="195.916"/>
      <point x="1496.55" y="328.672"/>
      <point x="1508.32" y="378.872" type="curve" smooth="yes"/>
      <point x="1729.01" y="1319.04" type="line"/>
      <point x="1643.71" y="1428.89"/>
      <point x="1554.58" y="1468.42"/>
      <point x="1416.41" y="1468.42" type="curve" smooth="yes"/>
      <point x="1280.03" y="1468.42"/>
      <point x="1174.41" y="1435.9"/>
      <point x="1073.39" y="1359.39" type="curve"/>
      <point x="993.034" y="1434.34"/>
      <point x="895.395" y="1468.42"/>
      <point x="776.611" y="1468.42" type="curve" smooth="yes"/>
      <point x="566.787" y="1468.42"/>
      <point x="372.31" y="1368.17"/>
      <point x="315.373" y="1156.22" type="curve" smooth="yes"/>
      <point x="290.698" y="1064.11" type="line"/>
      <point x="129.725" y="1064.11" type="line"/>
      <point x="94.115" y="914.426" type="line"/>
      <point x="252.016" y="914.426" type="line"/>
    </contour>
    <contour>
      <point x="477.782" y="1064.11" type="line"/>
      <point x="500.362" y="1145.17" type="line" smooth="yes"/>
      <point x="529.53" y="1249.83"/>
      <point x="647.05" y="1306.47"/>
      <point x="776.458" y="1306.45" type="curve" smooth="yes"/>
      <point x="846.223" y="1306.43"/>
      <point x="921.245" y="1288.99"/>
      <point x="969.2" y="1237.09" type="curve"/>
      <point x="943.201" y="1185.62"/>
      <point x="929.819" y="1120.34"/>
      <point x="914.109" y="1064.11" type="curve"/>
    </contour>
  </outline>
</glyph>
<glyph name="five.dnom" format="2">
  <advance width="854"/>
  <outline>
    <contour>
      <point x="328.368" y="-7.36823" type="curve" smooth="yes"/>
      <point x="579.899" y="-7.35223"/>
      <point x="743.967" y="147.457"/>
      <point x="744.049" y="387.664" type="curve" smooth="yes"/>
      <point x="744.101" y="546.013"/>
      <point x="635.191" y="651.499"/>
      <point x="473.246" y="651.499" type="curve" smooth="yes"/>
      <point x="399.261" y="651.499"/>
      <point x="336.145" y="630.911"/>
      <point x="281.86" y="588.881" type="curve"/>
      <point x="386.275" y="846.699" type="line"/>
      <point x="803.204" y="846.699" type="line"/>
      <point x="829.035" y="972.907" type="line"/>
      <point x="318.801" y="972.907" type="line"/>
      <point x="112.491" y="474.321" type="line"/>
      <point x="222.903" y="429.547" type="line"/>
      <point x="276.15" y="490.816"/>
      <point x="357.845" y="528.798"/>
      <point x="436.331" y="528.798" type="curve" smooth="yes"/>
      <point x="540.999" y="528.798"/>
      <point x="603.681" y="472.672"/>
      <point x="603.658" y="377.603" type="curve" smooth="yes"/>
      <point x="603.616" y="224.922"/>
      <point x="490.45" y="116.39"/>
      <point x="344.147" y="116.369" type="curve" smooth="yes"/>
      <point x="246.552" y="116.355"/>
      <point x="178.245" y="182.665"/>
      <point x="167.04" y="300.949" type="curve"/>
      <point x="36.9729" y="278.308" type="line"/>
      <point x="49.2729" y="104.359"/>
      <point x="173.245" y="-7.37923"/>
    </contour>
  </outline>
</glyph>
<glyph name="five.pnum" format="2">
  <advance width="1094"/>
  <outline>
    <contour>
      <point x="417.85" y="-20.48" type="curve" smooth="yes"/>
      <point x="761.377" y="-20.48"/>
      <point x="1035.45" y="248.96"/>
      <point x="1035.45" y="584.371" type="curve" smooth="yes"/>
      <point x="1035.45" y="808.269"/>
      <point x="885.46" y="959.565"/>
      <point x="662.433" y="959.565" type="curve" smooth="yes"/>
      <point x="554.068" y="959.565"/>
      <point x="464.11" y="930.509"/>
      <point x="381.678" y="869.939" type="curve"/>
      <point x="549.921" y="1277.21" type="line"/>
      <point x="1144.1" y="1277.21" type="line"/>
      <point x="1183.06" y="1446.91" type="line"/>
      <point x="439.738" y="1446.91" type="line"/>
      <point x="140.09" y="708.454" type="line"/>
      <point x="294.868" y="638.822" type="line"/>
      <point x="374.766" y="733.363"/>
      <point x="500.513" y="794.394"/>
      <point x="615.738" y="794.394" type="curve" smooth="yes"/>
      <point x="760.814" y="794.394"/>
      <point x="846.446" y="713.421"/>
      <point x="846.446" y="575.181" type="curve" smooth="yes"/>
      <point x="846.446" y="338.253"/>
      <point x="667.578" y="147.482"/>
      <point x="443.143" y="147.482" type="curve" smooth="yes"/>
      <point x="278.996" y="147.482"/>
      <point x="202.017" y="240.691"/>
      <point x="202.017" y="439.066" type="curve"/>
      <point x="21.921" y="398.285" type="line"/>
      <point x="21.921" y="151.27"/>
      <point x="183.866" y="-20.48"/>
    </contour>
  </outline>
</glyph>
<glyph name="kacyr.loclBGR" format="2">
  <advance width="1011"/>
  <outline>
    <contour>
      <point x="565.468" y="1446.91" type="line"/>
      <point x="376.028" y="1446.91" type="line"/>
      <point x="41.461" y="0" type="line"/>
      <point x="230.466" y="0" type="line"/>
    </contour>
    <contour>
      <point x="871.018" y="0" type="line"/>
      <point x="801.967" y="488.786" type="line" smooth="yes"/>
      <point x="786.504" y="596.963"/>
      <point x="708.151" y="658.278"/>
      <point x="583.974" y="658.278" type="curve"/>
      <point x="632.397" y="599.149" type="line"/>
      <point x="1056.87" y="1063.94" type="line"/>
      <point x="826.371" y="1063.94" type="line"/>
      <point x="499.485" y="672.691" type="line"/>
      <point x="354.651" y="672.691" type="line"/>
      <point x="317.986" y="524.774" type="line"/>
      <point x="487.453" y="524.774" type="line" smooth="yes"/>
      <point x="571.192" y="524.774"/>
      <point x="608.741" y="480.73"/>
      <point x="619.248" y="372.929" type="curve" smooth="yes"/>
      <point x="656.08" y="0" type="line"/>
    </contour>
  </outline>
</glyph>
<glyph name="nine.numr" format="2">
  <advance width="869"/>
  <outline>
    <contour>
      <point x="487.14" y="723.803" type="line"/>
      <point x="890.984" y="1194.12" type="line" smooth="yes"/>
      <point x="950.897" y="1263.35"/>
      <point x="989.258" y="1360.68"/>
      <point x="989.258" y="1446.7" type="curve" smooth="yes"/>
      <point x="989.258" y="1594.59"/>
      <point x="876.055" y="1705.1"/>
      <point x="712.957" y="1705.1" type="curve" smooth="yes"/>
      <point x="504.84" y="1705.1"/>
      <point x="289.789" y="1521.22"/>
      <point x="289.789" y="1306.82" type="curve" smooth="yes"/>
      <point x="289.789" y="1155.55"/>
      <point x="395.526" y="1060.72"/>
      <point x="531.844" y="1060.72" type="curve" smooth="yes"/>
      <point x="573.393" y="1060.72"/>
      <point x="605.928" y="1066.29"/>
      <point x="638.037" y="1076.69" type="curve"/>
      <point x="640.296" y="1073.4" type="line"/>
      <point x="333.079" y="723.803" type="line"/>
    </contour>
    <contour>
      <point x="579.024" y="1175.41" type="curve" smooth="yes"/>
      <point x="489.708" y="1175.41"/>
      <point x="425.802" y="1226.02"/>
      <point x="425.802" y="1320.41" type="curve" smooth="yes"/>
      <point x="425.802" y="1452.52"/>
      <point x="560.672" y="1575.36"/>
      <point x="692.068" y="1575.39" type="curve" smooth="yes"/>
      <point x="779.778" y="1575.4"/>
      <point x="852.82" y="1516.97"/>
      <point x="852.81" y="1425.68" type="curve" smooth="yes"/>
      <point x="852.796" y="1291.6"/>
      <point x="726.464" y="1175.41"/>
    </contour>
  </outline>
</glyph>
<glyph name="seven.numr" format="2">
  <advance width="836"/>
  <outline>
    <contour>
      <point x="376.913" y="733.305" type="line"/>
      <point x="1004.63" y="1629.2" type="line"/>
      <point x="1019.22" y="1700.27" type="line"/>
      <point x="359.403" y="1700.27" type="line"/>
      <point x="333.573" y="1574.34" type="line"/>
      <point x="840.888" y="1574.34" type="line"/>
      <point x="232.99" y="733.305" type="line"/>
    </contour>
  </outline>
</glyph>
<glyph name="six.pnum" format="2">
  <advance width="1110"/>
  <outline>
    <contour>
      <point x="547.21" y="-20.48" type="curve" smooth="yes"/>
      <point x="853.335" y="-20.48"/>
      <point x="1156.44" y="256.179"/>
      <point x="1156.44" y="567.834" type="curve" smooth="yes"/>
      <point x="1156.44" y="812.032"/>
      <point x="984.151" y="937.907"/>
      <point x="760.945" y="937.907" type="curve" smooth="yes"/>
      <point x="725.437" y="937.907"/>
      <point x="681.687" y="930.406"/>
      <point x="643.978" y="914.816" type="curve"/>
      <point x="1096.28" y="1446.91" type="line"/>
      <point x="881.93" y="1446.91" type="line"/>
      <point x="286.423" y="723.84" type="line" smooth="yes"/>
      <point x="199.361" y="618.319"/>
      <point x="148.644" y="496.23"/>
      <point x="148.644" y="365.44" type="curve" smooth="yes"/>
      <point x="148.644" y="133.402"/>
      <point x="320.829" y="-20.48"/>
    </contour>
    <contour>
      <point x="573.066" y="153.318" type="curve" smooth="yes"/>
      <point x="436.132" y="153.318"/>
      <point x="332.836" y="247.68"/>
      <point x="332.836" y="386.918" type="curve" smooth="yes"/>
      <point x="332.836" y="590.157"/>
      <point x="530.084" y="776.525"/>
      <point x="732.887" y="776.525" type="curve" smooth="yes"/>
      <point x="868.055" y="776.525"/>
      <point x="972.401" y="691.43"/>
      <point x="972.401" y="550.861" type="curve" smooth="yes"/>
      <point x="972.401" y="350.592"/>
      <point x="772.055" y="153.318"/>
    </contour>
  </outline>
</glyph>
<glyph name="two.pnum" format="2">
  <advance width="1136"/>
  <outline>
    <contour>
      <point x="-95.256" y="0" type="line"/>
      <point x="933.147" y="0" type="line"/>
      <point x="970.933" y="164.301" type="line"/>
      <point x="228.046" y="164.301" type="line"/>
      <point x="779.266" y="458.854"/>
      <point x="1137.26" y="840.858"/>
      <point x="1137.26" y="1137.18" type="curve" smooth="yes"/>
      <point x="1137.26" y="1333.27"/>
      <point x="993.384" y="1468.42"/>
      <point x="767.694" y="1468.42" type="curve" smooth="yes"/>
      <point x="500.591" y="1468.42"/>
      <point x="269.091" y="1273.32"/>
      <point x="195.054" y="990.245" type="curve"/>
      <point x="372.561" y="959.283" type="line"/>
      <point x="430.715" y="1166.42"/>
      <point x="578.027" y="1298.53"/>
      <point x="752.104" y="1298.53" type="curve" smooth="yes"/>
      <point x="872.629" y="1298.53"/>
      <point x="944.565" y="1225.09"/>
      <point x="944.565" y="1120.82" type="curve" smooth="yes"/>
      <point x="944.565" y="873.344"/>
      <point x="546.766" y="496.102"/>
      <point x="-60.0561" y="164.864" type="curve"/>
    </contour>
  </outline>
</glyph>
<glyph name="yukrcyr.calt2" format="2">
  <advance width="508"/>
  <anchor x="226.375" y="0" name="ogonek"/>
  <anchor x="119.15" y="-120" name="bottom"/>
  <anchor x="393" y="1192" name="top"/>
  <outline>
    <contour>
      <point x="222.55" y="0" type="line"/>
      <point x="475.25" y="1064" type="line"/>
      <point x="286.575" y="1064" type="line"/>
      <point x="33.875" y="0" type="line"/>
    </contour>
    <contour>
      <point x="664.95" y="1192.57" type="line"/>
      <point x="712.35" y="1398.27" type="line"/>
      <point x="529.375" y="1398.27" type="line"/>
      <point x="482.55" y="1192.57" type="line"/>
    </contour>
  </outline>
  <guideline angle="90" name="vertical" x="385" y="0"/>
</glyph>
